%
M48
M72
T01C0.0236
T02C0.0300
T03C0.0320
T04C0.0550
T05C0.1300
%
T01
X11010Y2126
X14010Y2126
X17010Y2126
X20010Y2126
X23010Y2126
X26010Y2126
X29010Y2126
X32010Y2126
X35010Y2126
X38010Y2126
X41010Y2126
X44010Y2126
X47010Y2126
X50010Y2126
X53010Y2126
X56010Y2126
X59010Y2126
X62010Y2126
X65010Y2126
X68010Y2126
X71010Y2126
X74010Y2126
X77010Y2126
X79510Y2126
X79010Y8126
X76010Y8126
X73010Y8126
X70010Y8126
X67010Y8126
X64010Y8126
X61010Y8126
X58010Y8126
X55010Y8126
X52010Y8126
X49010Y8126
X46010Y8126
X43010Y8126
X40010Y8126
X37010Y8126
X34010Y8126
X31010Y8126
X28010Y8126
X25010Y8126
X22010Y8126
X19010Y8126
X16010Y8126
X13010Y8126
X10010Y8126
X9510Y7626
X7510Y8876
X10510Y9126
X13510Y9126
X16510Y9126
X19510Y9126
X22510Y9126
X25510Y9126
X28510Y9126
X31510Y9126
X34510Y9126
X37510Y9126
X40510Y9126
X43510Y9126
X46510Y9126
X49510Y9126
X52510Y9126
X55510Y9126
X58510Y9126
X61510Y9126
X64510Y9126
X67510Y9126
X70510Y9126
X73510Y9126
X76510Y9126
X79510Y9126
X79510Y12626
X76510Y12626
X73510Y12626
X70510Y12626
X67510Y12626
X64510Y12626
X61510Y12626
X58510Y12626
X55510Y12626
X52510Y12626
X49510Y12626
X46510Y12626
X43510Y12626
X40510Y12626
X37510Y12626
X34510Y12626
X31510Y12626
X28510Y12626
X25510Y12626
X22510Y12626
X19510Y12626
X16510Y12626
X13510Y12626
X10510Y12626
X9510Y10126
X5760Y6126
X5760Y3126
X8510Y3126
T02
X13010Y4126
X13510Y4126
X14010Y4126
X14510Y4126
X19010Y4126
X19510Y4126
X20010Y4126
X20510Y4126
X25010Y4126
X25510Y4126
X26010Y4126
X26510Y4126
X31010Y4126
X31510Y4126
X32010Y4126
X32510Y4126
X37010Y4126
X37510Y4126
X38010Y4126
X38510Y4126
X43010Y4126
X43510Y4126
X44010Y4126
X44510Y4126
X49010Y4126
X49510Y4126
X50010Y4126
X50510Y4126
X55010Y4126
X55510Y4126
X56010Y4126
X56510Y4126
X61010Y4126
X61510Y4126
X62010Y4126
X62510Y4126
X67010Y4126
X67510Y4126
X68010Y4126
X68510Y4126
X73010Y4126
X73510Y4126
X74010Y4126
X74510Y4126
X79010Y4126
X79510Y4126
X80010Y4126
X80510Y4126
X77510Y6126
X77010Y6126
X76510Y6126
X76010Y6126
X71510Y6126
X71010Y6126
X70510Y6126
X70010Y6126
X65510Y6126
X65010Y6126
X64510Y6126
X64010Y6126
X59510Y6126
X59010Y6126
X58510Y6126
X58010Y6126
X53510Y6126
X53010Y6126
X52510Y6126
X52010Y6126
X47510Y6126
X47010Y6126
X46510Y6126
X46010Y6126
X41510Y6126
X41010Y6126
X40510Y6126
X40010Y6126
X35510Y6126
X35010Y6126
X34510Y6126
X34010Y6126
X29510Y6126
X29010Y6126
X28510Y6126
X28010Y6126
X23510Y6126
X23010Y6126
X22510Y6126
X22010Y6126
X17510Y6126
X17010Y6126
X16510Y6126
X16010Y6126
X11510Y6126
X11010Y6126
X10510Y6126
X10010Y6126
T03
X6760Y6626
X7510Y7126
X6760Y7626
X6760Y9626
X7510Y10126
X6760Y10626
X6760Y4626
X7510Y4126
X6760Y3626
T04
X4510Y4126
X7510Y1376
X4510Y7126
X4510Y10126
X7510Y13626
T05
X5010Y1626
X5010Y13626
X82010Y13626
X82010Y1626
M30
