G75*
G70*
%OFA0B0*%
%FSLAX24Y24*%
%IPPOS*%
%LPD*%
%AMOC8*
5,1,8,0,0,1.08239X$1,22.5*
%
%ADD10R,0.1063X0.0630*%
D10*
X010510Y010574D03*
X013510Y010574D03*
X016510Y010574D03*
X019510Y010574D03*
X022510Y010574D03*
X025510Y010574D03*
X028510Y010574D03*
X031510Y010574D03*
X034510Y010574D03*
X037510Y010574D03*
X040510Y010574D03*
X043510Y010574D03*
X046510Y010574D03*
X049510Y010574D03*
X052510Y010574D03*
X055510Y010574D03*
X058510Y010574D03*
X061510Y010574D03*
X064510Y010574D03*
X067510Y010574D03*
X070510Y010574D03*
X073510Y010574D03*
X076510Y010574D03*
X079510Y010574D03*
X079510Y011677D03*
X076510Y011677D03*
X073510Y011677D03*
X070510Y011677D03*
X067510Y011677D03*
X064510Y011677D03*
X061510Y011677D03*
X058510Y011677D03*
X055510Y011677D03*
X052510Y011677D03*
X049510Y011677D03*
X046510Y011677D03*
X043510Y011677D03*
X040510Y011677D03*
X037510Y011677D03*
X034510Y011677D03*
X031510Y011677D03*
X028510Y011677D03*
X025510Y011677D03*
X022510Y011677D03*
X019510Y011677D03*
X016510Y011677D03*
X013510Y011677D03*
X010510Y011677D03*
M02*
