G75*
G70*
%OFA0B0*%
%FSLAX24Y24*%
%IPPOS*%
%LPD*%
%AMOC8*
5,1,8,0,0,1.08239X$1,22.5*
%
%ADD10C,0.0040*%
%ADD11C,0.0050*%
%ADD12C,0.0060*%
D10*
X006780Y002222D02*
X006856Y002146D01*
X007010Y002146D01*
X007086Y002222D01*
X007086Y002376D01*
X006933Y002376D01*
X007086Y002529D02*
X007010Y002606D01*
X006856Y002606D01*
X006780Y002529D01*
X006780Y002222D01*
X007240Y002146D02*
X007240Y002606D01*
X007547Y002146D01*
X007547Y002606D01*
X007700Y002606D02*
X007930Y002606D01*
X008007Y002529D01*
X008007Y002222D01*
X007930Y002146D01*
X007700Y002146D01*
X007700Y002606D01*
X007779Y002896D02*
X007779Y003126D01*
X007856Y003203D01*
X007933Y003203D01*
X008009Y003126D01*
X008009Y002896D01*
X007779Y002896D02*
X008240Y002896D01*
X008240Y003126D01*
X008163Y003203D01*
X008086Y003203D01*
X008009Y003126D01*
X007933Y003356D02*
X008009Y003433D01*
X008009Y003586D01*
X008086Y003663D01*
X008163Y003663D01*
X008240Y003586D01*
X008240Y003433D01*
X008163Y003356D01*
X007933Y003356D02*
X007856Y003356D01*
X007779Y003433D01*
X007779Y003586D01*
X007856Y003663D01*
X007933Y003816D02*
X007779Y003970D01*
X008240Y003970D01*
X008240Y004123D02*
X008240Y003816D01*
X008240Y004277D02*
X008163Y004277D01*
X007856Y004584D01*
X007779Y004584D01*
X007779Y004277D01*
X007856Y004737D02*
X007779Y004814D01*
X007779Y004967D01*
X007856Y005044D01*
X008163Y004737D01*
X008240Y004814D01*
X008240Y004967D01*
X008163Y005044D01*
X007856Y005044D01*
X007856Y004737D02*
X008163Y004737D01*
X005928Y005146D02*
X005928Y005606D01*
X005775Y005453D01*
X005621Y005606D01*
X005621Y005146D01*
X005468Y005146D02*
X005468Y005606D01*
X005161Y005606D02*
X005161Y005146D01*
X005314Y005299D01*
X005468Y005146D01*
X005007Y005376D02*
X004930Y005299D01*
X004700Y005299D01*
X004700Y005146D02*
X004700Y005606D01*
X004930Y005606D01*
X005007Y005529D01*
X005007Y005376D01*
X004547Y005376D02*
X004240Y005376D01*
X004086Y005453D02*
X004086Y005529D01*
X004010Y005606D01*
X003780Y005606D01*
X003780Y005146D01*
X004010Y005146D01*
X004086Y005222D01*
X004086Y005299D01*
X004010Y005376D01*
X003780Y005376D01*
X004010Y005376D02*
X004086Y005453D01*
X007779Y005646D02*
X007779Y005876D01*
X007856Y005953D01*
X007933Y005953D01*
X008009Y005876D01*
X008009Y005646D01*
X008009Y005876D02*
X008086Y005953D01*
X008163Y005953D01*
X008240Y005876D01*
X008240Y005646D01*
X007779Y005646D01*
X007856Y006106D02*
X007933Y006106D01*
X008009Y006183D01*
X008009Y006336D01*
X008086Y006413D01*
X008163Y006413D01*
X008240Y006336D01*
X008240Y006183D01*
X008163Y006106D01*
X007856Y006106D02*
X007779Y006183D01*
X007779Y006336D01*
X007856Y006413D01*
X007933Y006566D02*
X007779Y006720D01*
X008240Y006720D01*
X008240Y006873D02*
X008240Y006566D01*
X008240Y007027D02*
X008163Y007027D01*
X007856Y007334D01*
X007779Y007334D01*
X007779Y007027D01*
X007856Y007487D02*
X007779Y007564D01*
X007779Y007717D01*
X007856Y007794D01*
X008163Y007487D01*
X008240Y007564D01*
X008240Y007717D01*
X008163Y007794D01*
X007856Y007794D01*
X007856Y007487D02*
X008163Y007487D01*
X005928Y008146D02*
X005928Y008606D01*
X005775Y008453D01*
X005621Y008606D01*
X005621Y008146D01*
X005468Y008146D02*
X005468Y008606D01*
X005161Y008606D02*
X005161Y008146D01*
X005314Y008299D01*
X005468Y008146D01*
X005007Y008376D02*
X004930Y008299D01*
X004700Y008299D01*
X004700Y008146D02*
X004700Y008606D01*
X004930Y008606D01*
X005007Y008529D01*
X005007Y008376D01*
X004547Y008376D02*
X004240Y008376D01*
X004086Y008376D02*
X004086Y008222D01*
X004010Y008146D01*
X003856Y008146D01*
X003780Y008222D01*
X003780Y008529D01*
X003856Y008606D01*
X004010Y008606D01*
X004086Y008529D01*
X004086Y008376D02*
X003933Y008376D01*
X007779Y009146D02*
X007779Y009376D01*
X007856Y009453D01*
X007933Y009453D01*
X008009Y009376D01*
X008009Y009146D01*
X008009Y009376D02*
X008086Y009453D01*
X008163Y009453D01*
X008240Y009376D01*
X008240Y009146D01*
X007779Y009146D01*
X007856Y009606D02*
X007933Y009606D01*
X008009Y009683D01*
X008009Y009836D01*
X008086Y009913D01*
X008163Y009913D01*
X008240Y009836D01*
X008240Y009683D01*
X008163Y009606D01*
X007856Y009606D02*
X007779Y009683D01*
X007779Y009836D01*
X007856Y009913D01*
X007933Y010066D02*
X007779Y010220D01*
X008240Y010220D01*
X008240Y010373D02*
X008240Y010066D01*
X008240Y010527D02*
X008163Y010527D01*
X007856Y010834D01*
X007779Y010834D01*
X007779Y010527D01*
X007856Y010987D02*
X007779Y011064D01*
X007779Y011217D01*
X007856Y011294D01*
X008163Y010987D01*
X008240Y011064D01*
X008240Y011217D01*
X008163Y011294D01*
X007856Y011294D01*
X007856Y010987D02*
X008163Y010987D01*
X005928Y011146D02*
X005928Y011606D01*
X005775Y011453D01*
X005621Y011606D01*
X005621Y011146D01*
X005621Y011606D01*
X005775Y011453D01*
X005928Y011606D01*
X005928Y011146D01*
X005468Y011146D02*
X005314Y011299D01*
X005161Y011146D01*
X005161Y011606D01*
X005161Y011146D01*
X005314Y011299D01*
X005468Y011146D01*
X005468Y011606D01*
X005468Y011146D01*
X005007Y011376D02*
X004930Y011299D01*
X004700Y011299D01*
X004930Y011299D01*
X005007Y011376D01*
X005007Y011529D01*
X004930Y011606D01*
X004700Y011606D01*
X004700Y011146D01*
X004700Y011606D01*
X004930Y011606D01*
X005007Y011529D01*
X005007Y011376D01*
X004547Y011376D02*
X004240Y011376D01*
X004547Y011376D01*
X004086Y011376D02*
X004086Y011529D01*
X004010Y011606D01*
X003780Y011606D01*
X003780Y011146D01*
X003780Y011606D01*
X004010Y011606D01*
X004086Y011529D01*
X004086Y011376D01*
X004010Y011299D01*
X003780Y011299D01*
X004010Y011299D01*
X004086Y011376D01*
X003933Y011299D02*
X004086Y011146D01*
X003933Y011299D01*
X006683Y012222D02*
X006683Y012529D01*
X006530Y012376D02*
X006836Y012376D01*
X006990Y012453D02*
X007143Y012606D01*
X007143Y012146D01*
X006990Y012146D02*
X007297Y012146D01*
X007450Y012146D02*
X007757Y012453D01*
X007757Y012529D01*
X007680Y012606D01*
X007527Y012606D01*
X007450Y012529D01*
X007911Y012606D02*
X007911Y012299D01*
X008064Y012146D01*
X008218Y012299D01*
X008218Y012606D01*
X007757Y012146D02*
X007450Y012146D01*
X011279Y011297D02*
X011509Y011066D01*
X011509Y011373D01*
X011279Y011297D02*
X011740Y011297D01*
X011740Y010913D02*
X011740Y010606D01*
X011433Y010913D01*
X011356Y010913D01*
X011279Y010836D01*
X011279Y010683D01*
X011356Y010606D01*
X011356Y010453D02*
X011509Y010453D01*
X011586Y010376D01*
X011586Y010146D01*
X011586Y010299D02*
X011740Y010453D01*
X011740Y010146D02*
X011279Y010146D01*
X011279Y010376D01*
X011356Y010453D01*
X014279Y010376D02*
X014279Y010146D01*
X014740Y010146D01*
X014586Y010146D02*
X014586Y010376D01*
X014509Y010453D01*
X014356Y010453D01*
X014279Y010376D01*
X014356Y010606D02*
X014279Y010683D01*
X014279Y010836D01*
X014356Y010913D01*
X014433Y010913D01*
X014740Y010606D01*
X014740Y010913D01*
X014663Y011066D02*
X014740Y011143D01*
X014740Y011297D01*
X014663Y011373D01*
X014586Y011373D01*
X014509Y011297D01*
X014509Y011220D01*
X014509Y011297D02*
X014433Y011373D01*
X014356Y011373D01*
X014279Y011297D01*
X014279Y011143D01*
X014356Y011066D01*
X017279Y011143D02*
X017356Y011066D01*
X017279Y011143D02*
X017279Y011297D01*
X017356Y011373D01*
X017433Y011373D01*
X017740Y011066D01*
X017740Y011373D01*
X017740Y010913D02*
X017740Y010606D01*
X017433Y010913D01*
X017356Y010913D01*
X017279Y010836D01*
X017279Y010683D01*
X017356Y010606D01*
X017356Y010453D02*
X017509Y010453D01*
X017586Y010376D01*
X017586Y010146D01*
X017586Y010299D02*
X017740Y010453D01*
X017740Y010146D02*
X017279Y010146D01*
X017279Y010376D01*
X017356Y010453D01*
X014740Y010453D02*
X014586Y010299D01*
X020279Y010376D02*
X020279Y010146D01*
X020740Y010146D01*
X020586Y010146D02*
X020586Y010376D01*
X020509Y010453D01*
X020356Y010453D01*
X020279Y010376D01*
X020356Y010606D02*
X020279Y010683D01*
X020279Y010836D01*
X020356Y010913D01*
X020433Y010913D01*
X020740Y010606D01*
X020740Y010913D01*
X020740Y011066D02*
X020740Y011373D01*
X020740Y011220D02*
X020279Y011220D01*
X020433Y011066D01*
X023279Y011143D02*
X023279Y011297D01*
X023356Y011373D01*
X023663Y011066D01*
X023740Y011143D01*
X023740Y011297D01*
X023663Y011373D01*
X023356Y011373D01*
X023279Y011143D02*
X023356Y011066D01*
X023663Y011066D01*
X023740Y010913D02*
X023740Y010606D01*
X023433Y010913D01*
X023356Y010913D01*
X023279Y010836D01*
X023279Y010683D01*
X023356Y010606D01*
X023356Y010453D02*
X023509Y010453D01*
X023586Y010376D01*
X023586Y010146D01*
X023586Y010299D02*
X023740Y010453D01*
X023740Y010146D02*
X023279Y010146D01*
X023279Y010376D01*
X023356Y010453D01*
X020740Y010453D02*
X020586Y010299D01*
X026279Y010376D02*
X026279Y010146D01*
X026740Y010146D01*
X026586Y010146D02*
X026586Y010376D01*
X026509Y010453D01*
X026356Y010453D01*
X026279Y010376D01*
X026433Y010606D02*
X026279Y010759D01*
X026740Y010759D01*
X026740Y010606D02*
X026740Y010913D01*
X026663Y011066D02*
X026740Y011143D01*
X026740Y011297D01*
X026663Y011373D01*
X026356Y011373D01*
X026279Y011297D01*
X026279Y011143D01*
X026356Y011066D01*
X026433Y011066D01*
X026509Y011143D01*
X026509Y011373D01*
X029279Y011297D02*
X029279Y011143D01*
X029356Y011066D01*
X029433Y011066D01*
X029509Y011143D01*
X029509Y011297D01*
X029586Y011373D01*
X029663Y011373D01*
X029740Y011297D01*
X029740Y011143D01*
X029663Y011066D01*
X029586Y011066D01*
X029509Y011143D01*
X029509Y011297D02*
X029433Y011373D01*
X029356Y011373D01*
X029279Y011297D01*
X029740Y010913D02*
X029740Y010606D01*
X029740Y010759D02*
X029279Y010759D01*
X029433Y010606D01*
X029509Y010453D02*
X029586Y010376D01*
X029586Y010146D01*
X029586Y010299D02*
X029740Y010453D01*
X029509Y010453D02*
X029356Y010453D01*
X029279Y010376D01*
X029279Y010146D01*
X029740Y010146D01*
X032279Y010146D02*
X032279Y010376D01*
X032356Y010453D01*
X032509Y010453D01*
X032586Y010376D01*
X032586Y010146D01*
X032586Y010299D02*
X032740Y010453D01*
X032740Y010606D02*
X032740Y010913D01*
X032740Y011066D02*
X032663Y011066D01*
X032356Y011373D01*
X032279Y011373D01*
X032279Y011066D01*
X032279Y010759D02*
X032740Y010759D01*
X032433Y010606D02*
X032279Y010759D01*
X032279Y010146D02*
X032740Y010146D01*
X035279Y010146D02*
X035279Y010376D01*
X035356Y010453D01*
X035509Y010453D01*
X035586Y010376D01*
X035586Y010146D01*
X035586Y010299D02*
X035740Y010453D01*
X035740Y010606D02*
X035740Y010913D01*
X035740Y010759D02*
X035279Y010759D01*
X035433Y010606D01*
X035279Y010146D02*
X035740Y010146D01*
X038279Y010146D02*
X038279Y010376D01*
X038356Y010453D01*
X038509Y010453D01*
X038586Y010376D01*
X038586Y010146D01*
X038586Y010299D02*
X038740Y010453D01*
X038740Y010606D02*
X038740Y010913D01*
X038740Y010759D02*
X038279Y010759D01*
X038433Y010606D01*
X038279Y010146D02*
X038740Y010146D01*
X041279Y010146D02*
X041279Y010376D01*
X041356Y010453D01*
X041509Y010453D01*
X041586Y010376D01*
X041586Y010146D01*
X041586Y010299D02*
X041740Y010453D01*
X041740Y010606D02*
X041740Y010913D01*
X041740Y010759D02*
X041279Y010759D01*
X041433Y010606D01*
X041279Y010146D02*
X041740Y010146D01*
X044279Y010146D02*
X044279Y010376D01*
X044356Y010453D01*
X044509Y010453D01*
X044586Y010376D01*
X044586Y010146D01*
X044586Y010299D02*
X044740Y010453D01*
X044740Y010606D02*
X044740Y010913D01*
X044740Y010759D02*
X044279Y010759D01*
X044433Y010606D01*
X044279Y010146D02*
X044740Y010146D01*
X047279Y010146D02*
X047279Y010376D01*
X047356Y010453D01*
X047509Y010453D01*
X047586Y010376D01*
X047586Y010146D01*
X047586Y010299D02*
X047740Y010453D01*
X047740Y010606D02*
X047740Y010913D01*
X047740Y011066D02*
X047433Y011373D01*
X047356Y011373D01*
X047279Y011297D01*
X047279Y011143D01*
X047356Y011066D01*
X047740Y011066D02*
X047740Y011373D01*
X047740Y010759D02*
X047279Y010759D01*
X047433Y010606D01*
X047279Y010146D02*
X047740Y010146D01*
X050279Y010146D02*
X050279Y010376D01*
X050356Y010453D01*
X050509Y010453D01*
X050586Y010376D01*
X050586Y010146D01*
X050586Y010299D02*
X050740Y010453D01*
X050740Y010606D02*
X050740Y010913D01*
X050740Y011066D02*
X050740Y011373D01*
X050740Y011220D02*
X050279Y011220D01*
X050433Y011066D01*
X050279Y010759D02*
X050740Y010759D01*
X050433Y010606D02*
X050279Y010759D01*
X050279Y010146D02*
X050740Y010146D01*
X053279Y010146D02*
X053279Y010376D01*
X053356Y010453D01*
X053509Y010453D01*
X053586Y010376D01*
X053586Y010146D01*
X053586Y010299D02*
X053740Y010453D01*
X053740Y010606D02*
X053740Y010913D01*
X053740Y010759D02*
X053279Y010759D01*
X053433Y010606D01*
X053279Y010146D02*
X053740Y010146D01*
X056279Y010146D02*
X056279Y010376D01*
X056356Y010453D01*
X056509Y010453D01*
X056586Y010376D01*
X056586Y010146D01*
X056586Y010299D02*
X056740Y010453D01*
X056663Y010606D02*
X056740Y010683D01*
X056740Y010836D01*
X056663Y010913D01*
X056356Y010913D01*
X056279Y010836D01*
X056279Y010683D01*
X056356Y010606D01*
X056433Y010606D01*
X056509Y010683D01*
X056509Y010913D01*
X059279Y010836D02*
X059356Y010913D01*
X059433Y010913D01*
X059509Y010836D01*
X059509Y010683D01*
X059433Y010606D01*
X059356Y010606D01*
X059279Y010683D01*
X059279Y010836D01*
X059509Y010836D02*
X059586Y010913D01*
X059663Y010913D01*
X059740Y010836D01*
X059740Y010683D01*
X059663Y010606D01*
X059586Y010606D01*
X059509Y010683D01*
X059509Y010453D02*
X059356Y010453D01*
X059279Y010376D01*
X059279Y010146D01*
X059740Y010146D01*
X059586Y010146D02*
X059586Y010376D01*
X059509Y010453D01*
X059586Y010299D02*
X059740Y010453D01*
X062279Y010376D02*
X062279Y010146D01*
X062740Y010146D01*
X062586Y010146D02*
X062586Y010376D01*
X062509Y010453D01*
X062356Y010453D01*
X062279Y010376D01*
X062279Y010606D02*
X062279Y010913D01*
X062356Y010913D01*
X062663Y010606D01*
X062740Y010606D01*
X062740Y010453D02*
X062586Y010299D01*
X065279Y010376D02*
X065279Y010146D01*
X065740Y010146D01*
X065586Y010146D02*
X065586Y010376D01*
X065509Y010453D01*
X065356Y010453D01*
X065279Y010376D01*
X065586Y010299D02*
X065740Y010453D01*
X065663Y010606D02*
X065740Y010683D01*
X065740Y010836D01*
X065663Y010913D01*
X065586Y010913D01*
X065509Y010836D01*
X065509Y010606D01*
X065663Y010606D01*
X065509Y010606D02*
X065356Y010759D01*
X065279Y010913D01*
X068279Y010913D02*
X068279Y010606D01*
X068509Y010606D01*
X068433Y010759D01*
X068433Y010836D01*
X068509Y010913D01*
X068663Y010913D01*
X068740Y010836D01*
X068740Y010683D01*
X068663Y010606D01*
X068740Y010453D02*
X068586Y010299D01*
X068586Y010376D02*
X068586Y010146D01*
X068740Y010146D02*
X068279Y010146D01*
X068279Y010376D01*
X068356Y010453D01*
X068509Y010453D01*
X068586Y010376D01*
X071279Y010376D02*
X071279Y010146D01*
X071740Y010146D01*
X071586Y010146D02*
X071586Y010376D01*
X071509Y010453D01*
X071356Y010453D01*
X071279Y010376D01*
X071586Y010299D02*
X071740Y010453D01*
X071509Y010606D02*
X071509Y010913D01*
X071279Y010836D02*
X071509Y010606D01*
X071740Y010836D02*
X071279Y010836D01*
X074279Y010836D02*
X074356Y010913D01*
X074433Y010913D01*
X074509Y010836D01*
X074586Y010913D01*
X074663Y010913D01*
X074740Y010836D01*
X074740Y010683D01*
X074663Y010606D01*
X074740Y010453D02*
X074586Y010299D01*
X074586Y010376D02*
X074586Y010146D01*
X074740Y010146D02*
X074279Y010146D01*
X074279Y010376D01*
X074356Y010453D01*
X074509Y010453D01*
X074586Y010376D01*
X074356Y010606D02*
X074279Y010683D01*
X074279Y010836D01*
X074509Y010836D02*
X074509Y010759D01*
X077279Y010683D02*
X077356Y010606D01*
X077279Y010683D02*
X077279Y010836D01*
X077356Y010913D01*
X077433Y010913D01*
X077740Y010606D01*
X077740Y010913D01*
X077740Y010453D02*
X077586Y010299D01*
X077586Y010376D02*
X077586Y010146D01*
X077740Y010146D02*
X077279Y010146D01*
X077279Y010376D01*
X077356Y010453D01*
X077509Y010453D01*
X077586Y010376D01*
X080279Y010376D02*
X080279Y010146D01*
X080740Y010146D01*
X080586Y010146D02*
X080586Y010376D01*
X080509Y010453D01*
X080356Y010453D01*
X080279Y010376D01*
X080433Y010606D02*
X080279Y010759D01*
X080740Y010759D01*
X080740Y010606D02*
X080740Y010913D01*
X080740Y010453D02*
X080586Y010299D01*
X078430Y007606D02*
X078200Y007606D01*
X078200Y007146D01*
X078430Y007146D01*
X078507Y007222D01*
X078507Y007529D01*
X078430Y007606D01*
X078047Y007606D02*
X077740Y007606D01*
X077740Y007146D01*
X078047Y007146D01*
X077586Y007146D02*
X077280Y007146D01*
X077280Y007606D01*
X077740Y007376D02*
X077893Y007376D01*
X072507Y007222D02*
X072507Y007529D01*
X072430Y007606D01*
X072200Y007606D01*
X072200Y007146D01*
X072430Y007146D01*
X072507Y007222D01*
X072047Y007146D02*
X071740Y007146D01*
X071740Y007606D01*
X072047Y007606D01*
X071893Y007376D02*
X071740Y007376D01*
X071280Y007606D02*
X071280Y007146D01*
X071586Y007146D01*
X066257Y007222D02*
X066180Y007146D01*
X065950Y007146D01*
X065950Y007606D01*
X066180Y007606D01*
X066257Y007529D01*
X066257Y007222D01*
X065797Y007146D02*
X065490Y007146D01*
X065490Y007606D01*
X065797Y007606D01*
X065643Y007376D02*
X065490Y007376D01*
X065030Y007606D02*
X065030Y007146D01*
X065336Y007146D01*
X060257Y007222D02*
X060257Y007529D01*
X060180Y007606D01*
X059950Y007606D01*
X059950Y007146D01*
X060180Y007146D01*
X060257Y007222D01*
X059797Y007146D02*
X059490Y007146D01*
X059490Y007606D01*
X059797Y007606D01*
X059643Y007376D02*
X059490Y007376D01*
X059030Y007606D02*
X059030Y007146D01*
X059336Y007146D01*
X054257Y007222D02*
X054180Y007146D01*
X053950Y007146D01*
X053950Y007606D01*
X054180Y007606D01*
X054257Y007529D01*
X054257Y007222D01*
X053797Y007146D02*
X053490Y007146D01*
X053490Y007606D01*
X053797Y007606D01*
X053643Y007376D02*
X053490Y007376D01*
X053030Y007606D02*
X053030Y007146D01*
X053336Y007146D01*
X048507Y007222D02*
X048430Y007146D01*
X048200Y007146D01*
X048200Y007606D01*
X048430Y007606D01*
X048507Y007529D01*
X048507Y007222D01*
X048047Y007146D02*
X047740Y007146D01*
X047740Y007606D01*
X048047Y007606D01*
X047893Y007376D02*
X047740Y007376D01*
X047280Y007606D02*
X047280Y007146D01*
X047586Y007146D01*
X042257Y007222D02*
X042180Y007146D01*
X041950Y007146D01*
X041950Y007606D01*
X042180Y007606D01*
X042257Y007529D01*
X042257Y007222D01*
X041797Y007146D02*
X041490Y007146D01*
X041490Y007606D01*
X041797Y007606D01*
X041643Y007376D02*
X041490Y007376D01*
X041030Y007606D02*
X041030Y007146D01*
X041336Y007146D01*
X036257Y007222D02*
X036180Y007146D01*
X035950Y007146D01*
X035950Y007606D01*
X036180Y007606D01*
X036257Y007529D01*
X036257Y007222D01*
X035797Y007146D02*
X035490Y007146D01*
X035490Y007606D01*
X035797Y007606D01*
X035643Y007376D02*
X035490Y007376D01*
X035030Y007606D02*
X035030Y007146D01*
X035336Y007146D01*
X030257Y007222D02*
X030180Y007146D01*
X029950Y007146D01*
X029950Y007606D01*
X030180Y007606D01*
X030257Y007529D01*
X030257Y007222D01*
X029797Y007146D02*
X029490Y007146D01*
X029490Y007606D01*
X029797Y007606D01*
X029643Y007376D02*
X029490Y007376D01*
X029030Y007606D02*
X029030Y007146D01*
X029336Y007146D01*
X024507Y007222D02*
X024430Y007146D01*
X024200Y007146D01*
X024200Y007606D01*
X024430Y007606D01*
X024507Y007529D01*
X024507Y007222D01*
X024047Y007146D02*
X023740Y007146D01*
X023740Y007606D01*
X024047Y007606D01*
X023893Y007376D02*
X023740Y007376D01*
X023280Y007606D02*
X023280Y007146D01*
X023586Y007146D01*
X018257Y007222D02*
X018180Y007146D01*
X017950Y007146D01*
X017950Y007606D01*
X018180Y007606D01*
X018257Y007529D01*
X018257Y007222D01*
X017797Y007146D02*
X017490Y007146D01*
X017490Y007606D01*
X017797Y007606D01*
X017643Y007376D02*
X017490Y007376D01*
X017030Y007606D02*
X017030Y007146D01*
X017336Y007146D01*
X012257Y007222D02*
X012180Y007146D01*
X011950Y007146D01*
X011950Y007606D01*
X012180Y007606D01*
X012257Y007529D01*
X012257Y007222D01*
X011797Y007146D02*
X011490Y007146D01*
X011490Y007606D01*
X011797Y007606D01*
X011643Y007376D02*
X011490Y007376D01*
X011030Y007606D02*
X011030Y007146D01*
X011336Y007146D01*
X014030Y005606D02*
X014030Y005146D01*
X014336Y005146D01*
X014490Y005146D02*
X014797Y005146D01*
X014950Y005146D02*
X015180Y005146D01*
X015257Y005222D01*
X015257Y005529D01*
X015180Y005606D01*
X014950Y005606D01*
X014950Y005146D01*
X014490Y005146D02*
X014490Y005606D01*
X014797Y005606D01*
X014643Y005376D02*
X014490Y005376D01*
X020030Y005606D02*
X020030Y005146D01*
X020336Y005146D01*
X020490Y005146D02*
X020797Y005146D01*
X020950Y005146D02*
X021180Y005146D01*
X021257Y005222D01*
X021257Y005529D01*
X021180Y005606D01*
X020950Y005606D01*
X020950Y005146D01*
X020490Y005146D02*
X020490Y005606D01*
X020797Y005606D01*
X020643Y005376D02*
X020490Y005376D01*
X026030Y005606D02*
X026030Y005146D01*
X026336Y005146D01*
X026490Y005146D02*
X026797Y005146D01*
X026950Y005146D02*
X027180Y005146D01*
X027257Y005222D01*
X027257Y005529D01*
X027180Y005606D01*
X026950Y005606D01*
X026950Y005146D01*
X026490Y005146D02*
X026490Y005606D01*
X026797Y005606D01*
X026643Y005376D02*
X026490Y005376D01*
X032280Y005606D02*
X032280Y005146D01*
X032586Y005146D01*
X032740Y005146D02*
X033047Y005146D01*
X033200Y005146D02*
X033430Y005146D01*
X033507Y005222D01*
X033507Y005529D01*
X033430Y005606D01*
X033200Y005606D01*
X033200Y005146D01*
X032740Y005146D02*
X032740Y005606D01*
X033047Y005606D01*
X032893Y005376D02*
X032740Y005376D01*
X038030Y005606D02*
X038030Y005146D01*
X038336Y005146D01*
X038490Y005146D02*
X038797Y005146D01*
X038950Y005146D02*
X039180Y005146D01*
X039257Y005222D01*
X039257Y005529D01*
X039180Y005606D01*
X038950Y005606D01*
X038950Y005146D01*
X038490Y005146D02*
X038490Y005606D01*
X038797Y005606D01*
X038643Y005376D02*
X038490Y005376D01*
X044280Y005606D02*
X044280Y005146D01*
X044586Y005146D01*
X044740Y005146D02*
X045047Y005146D01*
X045200Y005146D02*
X045430Y005146D01*
X045507Y005222D01*
X045507Y005529D01*
X045430Y005606D01*
X045200Y005606D01*
X045200Y005146D01*
X044740Y005146D02*
X044740Y005606D01*
X045047Y005606D01*
X044893Y005376D02*
X044740Y005376D01*
X050030Y005606D02*
X050030Y005146D01*
X050336Y005146D01*
X050490Y005146D02*
X050797Y005146D01*
X050950Y005146D02*
X051180Y005146D01*
X051257Y005222D01*
X051257Y005529D01*
X051180Y005606D01*
X050950Y005606D01*
X050950Y005146D01*
X050490Y005146D02*
X050490Y005606D01*
X050797Y005606D01*
X050643Y005376D02*
X050490Y005376D01*
X056280Y005606D02*
X056280Y005146D01*
X056586Y005146D01*
X056740Y005146D02*
X057047Y005146D01*
X057200Y005146D02*
X057430Y005146D01*
X057507Y005222D01*
X057507Y005529D01*
X057430Y005606D01*
X057200Y005606D01*
X057200Y005146D01*
X056740Y005146D02*
X056740Y005606D01*
X057047Y005606D01*
X056893Y005376D02*
X056740Y005376D01*
X062030Y005606D02*
X062030Y005146D01*
X062336Y005146D01*
X062490Y005146D02*
X062797Y005146D01*
X062950Y005146D02*
X063180Y005146D01*
X063257Y005222D01*
X063257Y005529D01*
X063180Y005606D01*
X062950Y005606D01*
X062950Y005146D01*
X062490Y005146D02*
X062490Y005606D01*
X062797Y005606D01*
X062643Y005376D02*
X062490Y005376D01*
X068280Y005606D02*
X068280Y005146D01*
X068586Y005146D01*
X068740Y005146D02*
X069047Y005146D01*
X069200Y005146D02*
X069430Y005146D01*
X069507Y005222D01*
X069507Y005529D01*
X069430Y005606D01*
X069200Y005606D01*
X069200Y005146D01*
X068740Y005146D02*
X068740Y005606D01*
X069047Y005606D01*
X068893Y005376D02*
X068740Y005376D01*
X074030Y005606D02*
X074030Y005146D01*
X074336Y005146D01*
X074490Y005146D02*
X074797Y005146D01*
X074950Y005146D02*
X075180Y005146D01*
X075257Y005222D01*
X075257Y005529D01*
X075180Y005606D01*
X074950Y005606D01*
X074950Y005146D01*
X074490Y005146D02*
X074490Y005606D01*
X074797Y005606D01*
X074643Y005376D02*
X074490Y005376D01*
X080030Y005606D02*
X080030Y005146D01*
X080336Y005146D01*
X080490Y005146D02*
X080797Y005146D01*
X080950Y005146D02*
X081180Y005146D01*
X081257Y005222D01*
X081257Y005529D01*
X081180Y005606D01*
X080950Y005606D01*
X080950Y005146D01*
X080490Y005146D02*
X080490Y005606D01*
X080797Y005606D01*
X080643Y005376D02*
X080490Y005376D01*
X056740Y010146D02*
X056279Y010146D01*
X053740Y011143D02*
X053663Y011066D01*
X053356Y011373D01*
X053663Y011373D01*
X053740Y011297D01*
X053740Y011143D01*
X053663Y011066D02*
X053356Y011066D01*
X053279Y011143D01*
X053279Y011297D01*
X053356Y011373D01*
X044740Y011297D02*
X044740Y011143D01*
X044663Y011066D01*
X044509Y011220D02*
X044509Y011297D01*
X044586Y011373D01*
X044663Y011373D01*
X044740Y011297D01*
X044509Y011297D02*
X044433Y011373D01*
X044356Y011373D01*
X044279Y011297D01*
X044279Y011143D01*
X044356Y011066D01*
X041740Y011297D02*
X041279Y011297D01*
X041509Y011066D01*
X041509Y011373D01*
X038740Y011297D02*
X038740Y011143D01*
X038663Y011066D01*
X038509Y011066D02*
X038433Y011220D01*
X038433Y011297D01*
X038509Y011373D01*
X038663Y011373D01*
X038740Y011297D01*
X038509Y011066D02*
X038279Y011066D01*
X038279Y011373D01*
X035740Y011297D02*
X035740Y011143D01*
X035663Y011066D01*
X035509Y011066D01*
X035509Y011297D01*
X035586Y011373D01*
X035663Y011373D01*
X035740Y011297D01*
X035509Y011066D02*
X035356Y011220D01*
X035279Y011373D01*
X026740Y010453D02*
X026586Y010299D01*
D11*
X027775Y006519D02*
X027775Y005732D01*
X027776Y005732D02*
X027802Y005673D01*
X027831Y005616D01*
X027863Y005561D01*
X027899Y005507D01*
X027938Y005456D01*
X027981Y005408D01*
X028026Y005362D01*
X028073Y005319D01*
X028123Y005278D01*
X028176Y005241D01*
X028231Y005208D01*
X028287Y005177D01*
X028346Y005150D01*
X028406Y005127D01*
X028467Y005107D01*
X028529Y005091D01*
X028593Y005079D01*
X028656Y005071D01*
X028720Y005067D01*
X028785Y005066D01*
X028849Y005070D01*
X028913Y005077D01*
X028976Y005088D01*
X029039Y005103D01*
X029100Y005122D01*
X029161Y005145D01*
X029219Y005171D01*
X029276Y005200D01*
X029332Y005233D01*
X029385Y005270D01*
X029435Y005309D01*
X029484Y005352D01*
X029529Y005397D01*
X029572Y005445D01*
X029612Y005495D01*
X029649Y005548D01*
X029682Y005603D01*
X029712Y005660D01*
X029739Y005719D01*
X029762Y005779D01*
X029781Y005840D01*
X029796Y005903D01*
X029808Y005966D01*
X029816Y006030D01*
X029820Y006094D01*
X029820Y006158D01*
X029816Y006222D01*
X029808Y006286D01*
X029796Y006349D01*
X029781Y006412D01*
X029762Y006473D01*
X029739Y006533D01*
X029712Y006592D01*
X029682Y006649D01*
X029649Y006704D01*
X029612Y006757D01*
X029572Y006807D01*
X029529Y006855D01*
X029484Y006900D01*
X029435Y006943D01*
X029385Y006982D01*
X029332Y007019D01*
X029276Y007052D01*
X029219Y007081D01*
X029161Y007107D01*
X029100Y007130D01*
X029039Y007149D01*
X028976Y007164D01*
X028913Y007175D01*
X028849Y007182D01*
X028785Y007186D01*
X028720Y007185D01*
X028656Y007181D01*
X028593Y007173D01*
X028529Y007161D01*
X028467Y007145D01*
X028406Y007125D01*
X028346Y007102D01*
X028287Y007075D01*
X028231Y007044D01*
X028176Y007011D01*
X028123Y006974D01*
X028073Y006933D01*
X028026Y006890D01*
X027981Y006844D01*
X027938Y006796D01*
X027899Y006745D01*
X027863Y006691D01*
X027831Y006636D01*
X027802Y006579D01*
X027776Y006520D01*
X021776Y006520D02*
X021802Y006579D01*
X021831Y006636D01*
X021863Y006691D01*
X021899Y006745D01*
X021938Y006796D01*
X021981Y006844D01*
X022026Y006890D01*
X022073Y006933D01*
X022123Y006974D01*
X022176Y007011D01*
X022231Y007044D01*
X022287Y007075D01*
X022346Y007102D01*
X022406Y007125D01*
X022467Y007145D01*
X022529Y007161D01*
X022593Y007173D01*
X022656Y007181D01*
X022720Y007185D01*
X022785Y007186D01*
X022849Y007182D01*
X022913Y007175D01*
X022976Y007164D01*
X023039Y007149D01*
X023100Y007130D01*
X023161Y007107D01*
X023219Y007081D01*
X023276Y007052D01*
X023332Y007019D01*
X023385Y006982D01*
X023435Y006943D01*
X023484Y006900D01*
X023529Y006855D01*
X023572Y006807D01*
X023612Y006757D01*
X023649Y006704D01*
X023682Y006649D01*
X023712Y006592D01*
X023739Y006533D01*
X023762Y006473D01*
X023781Y006412D01*
X023796Y006349D01*
X023808Y006286D01*
X023816Y006222D01*
X023820Y006158D01*
X023820Y006094D01*
X023816Y006030D01*
X023808Y005966D01*
X023796Y005903D01*
X023781Y005840D01*
X023762Y005779D01*
X023739Y005719D01*
X023712Y005660D01*
X023682Y005603D01*
X023649Y005548D01*
X023612Y005495D01*
X023572Y005445D01*
X023529Y005397D01*
X023484Y005352D01*
X023435Y005309D01*
X023385Y005270D01*
X023332Y005233D01*
X023276Y005200D01*
X023219Y005171D01*
X023161Y005145D01*
X023100Y005122D01*
X023039Y005103D01*
X022976Y005088D01*
X022913Y005077D01*
X022849Y005070D01*
X022785Y005066D01*
X022720Y005067D01*
X022656Y005071D01*
X022593Y005079D01*
X022529Y005091D01*
X022467Y005107D01*
X022406Y005127D01*
X022346Y005150D01*
X022287Y005177D01*
X022231Y005208D01*
X022176Y005241D01*
X022123Y005278D01*
X022073Y005319D01*
X022026Y005362D01*
X021981Y005408D01*
X021938Y005456D01*
X021899Y005507D01*
X021863Y005561D01*
X021831Y005616D01*
X021802Y005673D01*
X021776Y005732D01*
X021775Y005732D02*
X021775Y006519D01*
X015776Y006520D02*
X015802Y006579D01*
X015831Y006636D01*
X015863Y006691D01*
X015899Y006745D01*
X015938Y006796D01*
X015981Y006844D01*
X016026Y006890D01*
X016073Y006933D01*
X016123Y006974D01*
X016176Y007011D01*
X016231Y007044D01*
X016287Y007075D01*
X016346Y007102D01*
X016406Y007125D01*
X016467Y007145D01*
X016529Y007161D01*
X016593Y007173D01*
X016656Y007181D01*
X016720Y007185D01*
X016785Y007186D01*
X016849Y007182D01*
X016913Y007175D01*
X016976Y007164D01*
X017039Y007149D01*
X017100Y007130D01*
X017161Y007107D01*
X017219Y007081D01*
X017276Y007052D01*
X017332Y007019D01*
X017385Y006982D01*
X017435Y006943D01*
X017484Y006900D01*
X017529Y006855D01*
X017572Y006807D01*
X017612Y006757D01*
X017649Y006704D01*
X017682Y006649D01*
X017712Y006592D01*
X017739Y006533D01*
X017762Y006473D01*
X017781Y006412D01*
X017796Y006349D01*
X017808Y006286D01*
X017816Y006222D01*
X017820Y006158D01*
X017820Y006094D01*
X017816Y006030D01*
X017808Y005966D01*
X017796Y005903D01*
X017781Y005840D01*
X017762Y005779D01*
X017739Y005719D01*
X017712Y005660D01*
X017682Y005603D01*
X017649Y005548D01*
X017612Y005495D01*
X017572Y005445D01*
X017529Y005397D01*
X017484Y005352D01*
X017435Y005309D01*
X017385Y005270D01*
X017332Y005233D01*
X017276Y005200D01*
X017219Y005171D01*
X017161Y005145D01*
X017100Y005122D01*
X017039Y005103D01*
X016976Y005088D01*
X016913Y005077D01*
X016849Y005070D01*
X016785Y005066D01*
X016720Y005067D01*
X016656Y005071D01*
X016593Y005079D01*
X016529Y005091D01*
X016467Y005107D01*
X016406Y005127D01*
X016346Y005150D01*
X016287Y005177D01*
X016231Y005208D01*
X016176Y005241D01*
X016123Y005278D01*
X016073Y005319D01*
X016026Y005362D01*
X015981Y005408D01*
X015938Y005456D01*
X015899Y005507D01*
X015863Y005561D01*
X015831Y005616D01*
X015802Y005673D01*
X015776Y005732D01*
X015775Y005732D02*
X015775Y006519D01*
X009776Y006520D02*
X009802Y006579D01*
X009831Y006636D01*
X009863Y006691D01*
X009899Y006745D01*
X009938Y006796D01*
X009981Y006844D01*
X010026Y006890D01*
X010073Y006933D01*
X010123Y006974D01*
X010176Y007011D01*
X010231Y007044D01*
X010287Y007075D01*
X010346Y007102D01*
X010406Y007125D01*
X010467Y007145D01*
X010529Y007161D01*
X010593Y007173D01*
X010656Y007181D01*
X010720Y007185D01*
X010785Y007186D01*
X010849Y007182D01*
X010913Y007175D01*
X010976Y007164D01*
X011039Y007149D01*
X011100Y007130D01*
X011161Y007107D01*
X011219Y007081D01*
X011276Y007052D01*
X011332Y007019D01*
X011385Y006982D01*
X011435Y006943D01*
X011484Y006900D01*
X011529Y006855D01*
X011572Y006807D01*
X011612Y006757D01*
X011649Y006704D01*
X011682Y006649D01*
X011712Y006592D01*
X011739Y006533D01*
X011762Y006473D01*
X011781Y006412D01*
X011796Y006349D01*
X011808Y006286D01*
X011816Y006222D01*
X011820Y006158D01*
X011820Y006094D01*
X011816Y006030D01*
X011808Y005966D01*
X011796Y005903D01*
X011781Y005840D01*
X011762Y005779D01*
X011739Y005719D01*
X011712Y005660D01*
X011682Y005603D01*
X011649Y005548D01*
X011612Y005495D01*
X011572Y005445D01*
X011529Y005397D01*
X011484Y005352D01*
X011435Y005309D01*
X011385Y005270D01*
X011332Y005233D01*
X011276Y005200D01*
X011219Y005171D01*
X011161Y005145D01*
X011100Y005122D01*
X011039Y005103D01*
X010976Y005088D01*
X010913Y005077D01*
X010849Y005070D01*
X010785Y005066D01*
X010720Y005067D01*
X010656Y005071D01*
X010593Y005079D01*
X010529Y005091D01*
X010467Y005107D01*
X010406Y005127D01*
X010346Y005150D01*
X010287Y005177D01*
X010231Y005208D01*
X010176Y005241D01*
X010123Y005278D01*
X010073Y005319D01*
X010026Y005362D01*
X009981Y005408D01*
X009938Y005456D01*
X009899Y005507D01*
X009863Y005561D01*
X009831Y005616D01*
X009802Y005673D01*
X009776Y005732D01*
X009775Y005732D02*
X009775Y006519D01*
X012775Y004519D02*
X012775Y003732D01*
X012776Y003732D02*
X012802Y003673D01*
X012831Y003616D01*
X012863Y003561D01*
X012899Y003507D01*
X012938Y003456D01*
X012981Y003408D01*
X013026Y003362D01*
X013073Y003319D01*
X013123Y003278D01*
X013176Y003241D01*
X013231Y003208D01*
X013287Y003177D01*
X013346Y003150D01*
X013406Y003127D01*
X013467Y003107D01*
X013529Y003091D01*
X013593Y003079D01*
X013656Y003071D01*
X013720Y003067D01*
X013785Y003066D01*
X013849Y003070D01*
X013913Y003077D01*
X013976Y003088D01*
X014039Y003103D01*
X014100Y003122D01*
X014161Y003145D01*
X014219Y003171D01*
X014276Y003200D01*
X014332Y003233D01*
X014385Y003270D01*
X014435Y003309D01*
X014484Y003352D01*
X014529Y003397D01*
X014572Y003445D01*
X014612Y003495D01*
X014649Y003548D01*
X014682Y003603D01*
X014712Y003660D01*
X014739Y003719D01*
X014762Y003779D01*
X014781Y003840D01*
X014796Y003903D01*
X014808Y003966D01*
X014816Y004030D01*
X014820Y004094D01*
X014820Y004158D01*
X014816Y004222D01*
X014808Y004286D01*
X014796Y004349D01*
X014781Y004412D01*
X014762Y004473D01*
X014739Y004533D01*
X014712Y004592D01*
X014682Y004649D01*
X014649Y004704D01*
X014612Y004757D01*
X014572Y004807D01*
X014529Y004855D01*
X014484Y004900D01*
X014435Y004943D01*
X014385Y004982D01*
X014332Y005019D01*
X014276Y005052D01*
X014219Y005081D01*
X014161Y005107D01*
X014100Y005130D01*
X014039Y005149D01*
X013976Y005164D01*
X013913Y005175D01*
X013849Y005182D01*
X013785Y005186D01*
X013720Y005185D01*
X013656Y005181D01*
X013593Y005173D01*
X013529Y005161D01*
X013467Y005145D01*
X013406Y005125D01*
X013346Y005102D01*
X013287Y005075D01*
X013231Y005044D01*
X013176Y005011D01*
X013123Y004974D01*
X013073Y004933D01*
X013026Y004890D01*
X012981Y004844D01*
X012938Y004796D01*
X012899Y004745D01*
X012863Y004691D01*
X012831Y004636D01*
X012802Y004579D01*
X012776Y004520D01*
X018775Y004519D02*
X018775Y003732D01*
X018776Y003732D02*
X018802Y003673D01*
X018831Y003616D01*
X018863Y003561D01*
X018899Y003507D01*
X018938Y003456D01*
X018981Y003408D01*
X019026Y003362D01*
X019073Y003319D01*
X019123Y003278D01*
X019176Y003241D01*
X019231Y003208D01*
X019287Y003177D01*
X019346Y003150D01*
X019406Y003127D01*
X019467Y003107D01*
X019529Y003091D01*
X019593Y003079D01*
X019656Y003071D01*
X019720Y003067D01*
X019785Y003066D01*
X019849Y003070D01*
X019913Y003077D01*
X019976Y003088D01*
X020039Y003103D01*
X020100Y003122D01*
X020161Y003145D01*
X020219Y003171D01*
X020276Y003200D01*
X020332Y003233D01*
X020385Y003270D01*
X020435Y003309D01*
X020484Y003352D01*
X020529Y003397D01*
X020572Y003445D01*
X020612Y003495D01*
X020649Y003548D01*
X020682Y003603D01*
X020712Y003660D01*
X020739Y003719D01*
X020762Y003779D01*
X020781Y003840D01*
X020796Y003903D01*
X020808Y003966D01*
X020816Y004030D01*
X020820Y004094D01*
X020820Y004158D01*
X020816Y004222D01*
X020808Y004286D01*
X020796Y004349D01*
X020781Y004412D01*
X020762Y004473D01*
X020739Y004533D01*
X020712Y004592D01*
X020682Y004649D01*
X020649Y004704D01*
X020612Y004757D01*
X020572Y004807D01*
X020529Y004855D01*
X020484Y004900D01*
X020435Y004943D01*
X020385Y004982D01*
X020332Y005019D01*
X020276Y005052D01*
X020219Y005081D01*
X020161Y005107D01*
X020100Y005130D01*
X020039Y005149D01*
X019976Y005164D01*
X019913Y005175D01*
X019849Y005182D01*
X019785Y005186D01*
X019720Y005185D01*
X019656Y005181D01*
X019593Y005173D01*
X019529Y005161D01*
X019467Y005145D01*
X019406Y005125D01*
X019346Y005102D01*
X019287Y005075D01*
X019231Y005044D01*
X019176Y005011D01*
X019123Y004974D01*
X019073Y004933D01*
X019026Y004890D01*
X018981Y004844D01*
X018938Y004796D01*
X018899Y004745D01*
X018863Y004691D01*
X018831Y004636D01*
X018802Y004579D01*
X018776Y004520D01*
X024775Y004519D02*
X024775Y003732D01*
X024776Y003732D02*
X024802Y003673D01*
X024831Y003616D01*
X024863Y003561D01*
X024899Y003507D01*
X024938Y003456D01*
X024981Y003408D01*
X025026Y003362D01*
X025073Y003319D01*
X025123Y003278D01*
X025176Y003241D01*
X025231Y003208D01*
X025287Y003177D01*
X025346Y003150D01*
X025406Y003127D01*
X025467Y003107D01*
X025529Y003091D01*
X025593Y003079D01*
X025656Y003071D01*
X025720Y003067D01*
X025785Y003066D01*
X025849Y003070D01*
X025913Y003077D01*
X025976Y003088D01*
X026039Y003103D01*
X026100Y003122D01*
X026161Y003145D01*
X026219Y003171D01*
X026276Y003200D01*
X026332Y003233D01*
X026385Y003270D01*
X026435Y003309D01*
X026484Y003352D01*
X026529Y003397D01*
X026572Y003445D01*
X026612Y003495D01*
X026649Y003548D01*
X026682Y003603D01*
X026712Y003660D01*
X026739Y003719D01*
X026762Y003779D01*
X026781Y003840D01*
X026796Y003903D01*
X026808Y003966D01*
X026816Y004030D01*
X026820Y004094D01*
X026820Y004158D01*
X026816Y004222D01*
X026808Y004286D01*
X026796Y004349D01*
X026781Y004412D01*
X026762Y004473D01*
X026739Y004533D01*
X026712Y004592D01*
X026682Y004649D01*
X026649Y004704D01*
X026612Y004757D01*
X026572Y004807D01*
X026529Y004855D01*
X026484Y004900D01*
X026435Y004943D01*
X026385Y004982D01*
X026332Y005019D01*
X026276Y005052D01*
X026219Y005081D01*
X026161Y005107D01*
X026100Y005130D01*
X026039Y005149D01*
X025976Y005164D01*
X025913Y005175D01*
X025849Y005182D01*
X025785Y005186D01*
X025720Y005185D01*
X025656Y005181D01*
X025593Y005173D01*
X025529Y005161D01*
X025467Y005145D01*
X025406Y005125D01*
X025346Y005102D01*
X025287Y005075D01*
X025231Y005044D01*
X025176Y005011D01*
X025123Y004974D01*
X025073Y004933D01*
X025026Y004890D01*
X024981Y004844D01*
X024938Y004796D01*
X024899Y004745D01*
X024863Y004691D01*
X024831Y004636D01*
X024802Y004579D01*
X024776Y004520D01*
X030775Y004519D02*
X030775Y003732D01*
X030776Y003732D02*
X030802Y003673D01*
X030831Y003616D01*
X030863Y003561D01*
X030899Y003507D01*
X030938Y003456D01*
X030981Y003408D01*
X031026Y003362D01*
X031073Y003319D01*
X031123Y003278D01*
X031176Y003241D01*
X031231Y003208D01*
X031287Y003177D01*
X031346Y003150D01*
X031406Y003127D01*
X031467Y003107D01*
X031529Y003091D01*
X031593Y003079D01*
X031656Y003071D01*
X031720Y003067D01*
X031785Y003066D01*
X031849Y003070D01*
X031913Y003077D01*
X031976Y003088D01*
X032039Y003103D01*
X032100Y003122D01*
X032161Y003145D01*
X032219Y003171D01*
X032276Y003200D01*
X032332Y003233D01*
X032385Y003270D01*
X032435Y003309D01*
X032484Y003352D01*
X032529Y003397D01*
X032572Y003445D01*
X032612Y003495D01*
X032649Y003548D01*
X032682Y003603D01*
X032712Y003660D01*
X032739Y003719D01*
X032762Y003779D01*
X032781Y003840D01*
X032796Y003903D01*
X032808Y003966D01*
X032816Y004030D01*
X032820Y004094D01*
X032820Y004158D01*
X032816Y004222D01*
X032808Y004286D01*
X032796Y004349D01*
X032781Y004412D01*
X032762Y004473D01*
X032739Y004533D01*
X032712Y004592D01*
X032682Y004649D01*
X032649Y004704D01*
X032612Y004757D01*
X032572Y004807D01*
X032529Y004855D01*
X032484Y004900D01*
X032435Y004943D01*
X032385Y004982D01*
X032332Y005019D01*
X032276Y005052D01*
X032219Y005081D01*
X032161Y005107D01*
X032100Y005130D01*
X032039Y005149D01*
X031976Y005164D01*
X031913Y005175D01*
X031849Y005182D01*
X031785Y005186D01*
X031720Y005185D01*
X031656Y005181D01*
X031593Y005173D01*
X031529Y005161D01*
X031467Y005145D01*
X031406Y005125D01*
X031346Y005102D01*
X031287Y005075D01*
X031231Y005044D01*
X031176Y005011D01*
X031123Y004974D01*
X031073Y004933D01*
X031026Y004890D01*
X030981Y004844D01*
X030938Y004796D01*
X030899Y004745D01*
X030863Y004691D01*
X030831Y004636D01*
X030802Y004579D01*
X030776Y004520D01*
X033775Y005732D02*
X033775Y006519D01*
X033776Y006520D02*
X033802Y006579D01*
X033831Y006636D01*
X033863Y006691D01*
X033899Y006745D01*
X033938Y006796D01*
X033981Y006844D01*
X034026Y006890D01*
X034073Y006933D01*
X034123Y006974D01*
X034176Y007011D01*
X034231Y007044D01*
X034287Y007075D01*
X034346Y007102D01*
X034406Y007125D01*
X034467Y007145D01*
X034529Y007161D01*
X034593Y007173D01*
X034656Y007181D01*
X034720Y007185D01*
X034785Y007186D01*
X034849Y007182D01*
X034913Y007175D01*
X034976Y007164D01*
X035039Y007149D01*
X035100Y007130D01*
X035161Y007107D01*
X035219Y007081D01*
X035276Y007052D01*
X035332Y007019D01*
X035385Y006982D01*
X035435Y006943D01*
X035484Y006900D01*
X035529Y006855D01*
X035572Y006807D01*
X035612Y006757D01*
X035649Y006704D01*
X035682Y006649D01*
X035712Y006592D01*
X035739Y006533D01*
X035762Y006473D01*
X035781Y006412D01*
X035796Y006349D01*
X035808Y006286D01*
X035816Y006222D01*
X035820Y006158D01*
X035820Y006094D01*
X035816Y006030D01*
X035808Y005966D01*
X035796Y005903D01*
X035781Y005840D01*
X035762Y005779D01*
X035739Y005719D01*
X035712Y005660D01*
X035682Y005603D01*
X035649Y005548D01*
X035612Y005495D01*
X035572Y005445D01*
X035529Y005397D01*
X035484Y005352D01*
X035435Y005309D01*
X035385Y005270D01*
X035332Y005233D01*
X035276Y005200D01*
X035219Y005171D01*
X035161Y005145D01*
X035100Y005122D01*
X035039Y005103D01*
X034976Y005088D01*
X034913Y005077D01*
X034849Y005070D01*
X034785Y005066D01*
X034720Y005067D01*
X034656Y005071D01*
X034593Y005079D01*
X034529Y005091D01*
X034467Y005107D01*
X034406Y005127D01*
X034346Y005150D01*
X034287Y005177D01*
X034231Y005208D01*
X034176Y005241D01*
X034123Y005278D01*
X034073Y005319D01*
X034026Y005362D01*
X033981Y005408D01*
X033938Y005456D01*
X033899Y005507D01*
X033863Y005561D01*
X033831Y005616D01*
X033802Y005673D01*
X033776Y005732D01*
X036775Y004519D02*
X036775Y003732D01*
X036776Y003732D02*
X036802Y003673D01*
X036831Y003616D01*
X036863Y003561D01*
X036899Y003507D01*
X036938Y003456D01*
X036981Y003408D01*
X037026Y003362D01*
X037073Y003319D01*
X037123Y003278D01*
X037176Y003241D01*
X037231Y003208D01*
X037287Y003177D01*
X037346Y003150D01*
X037406Y003127D01*
X037467Y003107D01*
X037529Y003091D01*
X037593Y003079D01*
X037656Y003071D01*
X037720Y003067D01*
X037785Y003066D01*
X037849Y003070D01*
X037913Y003077D01*
X037976Y003088D01*
X038039Y003103D01*
X038100Y003122D01*
X038161Y003145D01*
X038219Y003171D01*
X038276Y003200D01*
X038332Y003233D01*
X038385Y003270D01*
X038435Y003309D01*
X038484Y003352D01*
X038529Y003397D01*
X038572Y003445D01*
X038612Y003495D01*
X038649Y003548D01*
X038682Y003603D01*
X038712Y003660D01*
X038739Y003719D01*
X038762Y003779D01*
X038781Y003840D01*
X038796Y003903D01*
X038808Y003966D01*
X038816Y004030D01*
X038820Y004094D01*
X038820Y004158D01*
X038816Y004222D01*
X038808Y004286D01*
X038796Y004349D01*
X038781Y004412D01*
X038762Y004473D01*
X038739Y004533D01*
X038712Y004592D01*
X038682Y004649D01*
X038649Y004704D01*
X038612Y004757D01*
X038572Y004807D01*
X038529Y004855D01*
X038484Y004900D01*
X038435Y004943D01*
X038385Y004982D01*
X038332Y005019D01*
X038276Y005052D01*
X038219Y005081D01*
X038161Y005107D01*
X038100Y005130D01*
X038039Y005149D01*
X037976Y005164D01*
X037913Y005175D01*
X037849Y005182D01*
X037785Y005186D01*
X037720Y005185D01*
X037656Y005181D01*
X037593Y005173D01*
X037529Y005161D01*
X037467Y005145D01*
X037406Y005125D01*
X037346Y005102D01*
X037287Y005075D01*
X037231Y005044D01*
X037176Y005011D01*
X037123Y004974D01*
X037073Y004933D01*
X037026Y004890D01*
X036981Y004844D01*
X036938Y004796D01*
X036899Y004745D01*
X036863Y004691D01*
X036831Y004636D01*
X036802Y004579D01*
X036776Y004520D01*
X039775Y005732D02*
X039775Y006519D01*
X039776Y006520D02*
X039802Y006579D01*
X039831Y006636D01*
X039863Y006691D01*
X039899Y006745D01*
X039938Y006796D01*
X039981Y006844D01*
X040026Y006890D01*
X040073Y006933D01*
X040123Y006974D01*
X040176Y007011D01*
X040231Y007044D01*
X040287Y007075D01*
X040346Y007102D01*
X040406Y007125D01*
X040467Y007145D01*
X040529Y007161D01*
X040593Y007173D01*
X040656Y007181D01*
X040720Y007185D01*
X040785Y007186D01*
X040849Y007182D01*
X040913Y007175D01*
X040976Y007164D01*
X041039Y007149D01*
X041100Y007130D01*
X041161Y007107D01*
X041219Y007081D01*
X041276Y007052D01*
X041332Y007019D01*
X041385Y006982D01*
X041435Y006943D01*
X041484Y006900D01*
X041529Y006855D01*
X041572Y006807D01*
X041612Y006757D01*
X041649Y006704D01*
X041682Y006649D01*
X041712Y006592D01*
X041739Y006533D01*
X041762Y006473D01*
X041781Y006412D01*
X041796Y006349D01*
X041808Y006286D01*
X041816Y006222D01*
X041820Y006158D01*
X041820Y006094D01*
X041816Y006030D01*
X041808Y005966D01*
X041796Y005903D01*
X041781Y005840D01*
X041762Y005779D01*
X041739Y005719D01*
X041712Y005660D01*
X041682Y005603D01*
X041649Y005548D01*
X041612Y005495D01*
X041572Y005445D01*
X041529Y005397D01*
X041484Y005352D01*
X041435Y005309D01*
X041385Y005270D01*
X041332Y005233D01*
X041276Y005200D01*
X041219Y005171D01*
X041161Y005145D01*
X041100Y005122D01*
X041039Y005103D01*
X040976Y005088D01*
X040913Y005077D01*
X040849Y005070D01*
X040785Y005066D01*
X040720Y005067D01*
X040656Y005071D01*
X040593Y005079D01*
X040529Y005091D01*
X040467Y005107D01*
X040406Y005127D01*
X040346Y005150D01*
X040287Y005177D01*
X040231Y005208D01*
X040176Y005241D01*
X040123Y005278D01*
X040073Y005319D01*
X040026Y005362D01*
X039981Y005408D01*
X039938Y005456D01*
X039899Y005507D01*
X039863Y005561D01*
X039831Y005616D01*
X039802Y005673D01*
X039776Y005732D01*
X042775Y004519D02*
X042775Y003732D01*
X042776Y003732D02*
X042802Y003673D01*
X042831Y003616D01*
X042863Y003561D01*
X042899Y003507D01*
X042938Y003456D01*
X042981Y003408D01*
X043026Y003362D01*
X043073Y003319D01*
X043123Y003278D01*
X043176Y003241D01*
X043231Y003208D01*
X043287Y003177D01*
X043346Y003150D01*
X043406Y003127D01*
X043467Y003107D01*
X043529Y003091D01*
X043593Y003079D01*
X043656Y003071D01*
X043720Y003067D01*
X043785Y003066D01*
X043849Y003070D01*
X043913Y003077D01*
X043976Y003088D01*
X044039Y003103D01*
X044100Y003122D01*
X044161Y003145D01*
X044219Y003171D01*
X044276Y003200D01*
X044332Y003233D01*
X044385Y003270D01*
X044435Y003309D01*
X044484Y003352D01*
X044529Y003397D01*
X044572Y003445D01*
X044612Y003495D01*
X044649Y003548D01*
X044682Y003603D01*
X044712Y003660D01*
X044739Y003719D01*
X044762Y003779D01*
X044781Y003840D01*
X044796Y003903D01*
X044808Y003966D01*
X044816Y004030D01*
X044820Y004094D01*
X044820Y004158D01*
X044816Y004222D01*
X044808Y004286D01*
X044796Y004349D01*
X044781Y004412D01*
X044762Y004473D01*
X044739Y004533D01*
X044712Y004592D01*
X044682Y004649D01*
X044649Y004704D01*
X044612Y004757D01*
X044572Y004807D01*
X044529Y004855D01*
X044484Y004900D01*
X044435Y004943D01*
X044385Y004982D01*
X044332Y005019D01*
X044276Y005052D01*
X044219Y005081D01*
X044161Y005107D01*
X044100Y005130D01*
X044039Y005149D01*
X043976Y005164D01*
X043913Y005175D01*
X043849Y005182D01*
X043785Y005186D01*
X043720Y005185D01*
X043656Y005181D01*
X043593Y005173D01*
X043529Y005161D01*
X043467Y005145D01*
X043406Y005125D01*
X043346Y005102D01*
X043287Y005075D01*
X043231Y005044D01*
X043176Y005011D01*
X043123Y004974D01*
X043073Y004933D01*
X043026Y004890D01*
X042981Y004844D01*
X042938Y004796D01*
X042899Y004745D01*
X042863Y004691D01*
X042831Y004636D01*
X042802Y004579D01*
X042776Y004520D01*
X045775Y005732D02*
X045775Y006519D01*
X045776Y006520D02*
X045802Y006579D01*
X045831Y006636D01*
X045863Y006691D01*
X045899Y006745D01*
X045938Y006796D01*
X045981Y006844D01*
X046026Y006890D01*
X046073Y006933D01*
X046123Y006974D01*
X046176Y007011D01*
X046231Y007044D01*
X046287Y007075D01*
X046346Y007102D01*
X046406Y007125D01*
X046467Y007145D01*
X046529Y007161D01*
X046593Y007173D01*
X046656Y007181D01*
X046720Y007185D01*
X046785Y007186D01*
X046849Y007182D01*
X046913Y007175D01*
X046976Y007164D01*
X047039Y007149D01*
X047100Y007130D01*
X047161Y007107D01*
X047219Y007081D01*
X047276Y007052D01*
X047332Y007019D01*
X047385Y006982D01*
X047435Y006943D01*
X047484Y006900D01*
X047529Y006855D01*
X047572Y006807D01*
X047612Y006757D01*
X047649Y006704D01*
X047682Y006649D01*
X047712Y006592D01*
X047739Y006533D01*
X047762Y006473D01*
X047781Y006412D01*
X047796Y006349D01*
X047808Y006286D01*
X047816Y006222D01*
X047820Y006158D01*
X047820Y006094D01*
X047816Y006030D01*
X047808Y005966D01*
X047796Y005903D01*
X047781Y005840D01*
X047762Y005779D01*
X047739Y005719D01*
X047712Y005660D01*
X047682Y005603D01*
X047649Y005548D01*
X047612Y005495D01*
X047572Y005445D01*
X047529Y005397D01*
X047484Y005352D01*
X047435Y005309D01*
X047385Y005270D01*
X047332Y005233D01*
X047276Y005200D01*
X047219Y005171D01*
X047161Y005145D01*
X047100Y005122D01*
X047039Y005103D01*
X046976Y005088D01*
X046913Y005077D01*
X046849Y005070D01*
X046785Y005066D01*
X046720Y005067D01*
X046656Y005071D01*
X046593Y005079D01*
X046529Y005091D01*
X046467Y005107D01*
X046406Y005127D01*
X046346Y005150D01*
X046287Y005177D01*
X046231Y005208D01*
X046176Y005241D01*
X046123Y005278D01*
X046073Y005319D01*
X046026Y005362D01*
X045981Y005408D01*
X045938Y005456D01*
X045899Y005507D01*
X045863Y005561D01*
X045831Y005616D01*
X045802Y005673D01*
X045776Y005732D01*
X048775Y004519D02*
X048775Y003732D01*
X048776Y003732D02*
X048802Y003673D01*
X048831Y003616D01*
X048863Y003561D01*
X048899Y003507D01*
X048938Y003456D01*
X048981Y003408D01*
X049026Y003362D01*
X049073Y003319D01*
X049123Y003278D01*
X049176Y003241D01*
X049231Y003208D01*
X049287Y003177D01*
X049346Y003150D01*
X049406Y003127D01*
X049467Y003107D01*
X049529Y003091D01*
X049593Y003079D01*
X049656Y003071D01*
X049720Y003067D01*
X049785Y003066D01*
X049849Y003070D01*
X049913Y003077D01*
X049976Y003088D01*
X050039Y003103D01*
X050100Y003122D01*
X050161Y003145D01*
X050219Y003171D01*
X050276Y003200D01*
X050332Y003233D01*
X050385Y003270D01*
X050435Y003309D01*
X050484Y003352D01*
X050529Y003397D01*
X050572Y003445D01*
X050612Y003495D01*
X050649Y003548D01*
X050682Y003603D01*
X050712Y003660D01*
X050739Y003719D01*
X050762Y003779D01*
X050781Y003840D01*
X050796Y003903D01*
X050808Y003966D01*
X050816Y004030D01*
X050820Y004094D01*
X050820Y004158D01*
X050816Y004222D01*
X050808Y004286D01*
X050796Y004349D01*
X050781Y004412D01*
X050762Y004473D01*
X050739Y004533D01*
X050712Y004592D01*
X050682Y004649D01*
X050649Y004704D01*
X050612Y004757D01*
X050572Y004807D01*
X050529Y004855D01*
X050484Y004900D01*
X050435Y004943D01*
X050385Y004982D01*
X050332Y005019D01*
X050276Y005052D01*
X050219Y005081D01*
X050161Y005107D01*
X050100Y005130D01*
X050039Y005149D01*
X049976Y005164D01*
X049913Y005175D01*
X049849Y005182D01*
X049785Y005186D01*
X049720Y005185D01*
X049656Y005181D01*
X049593Y005173D01*
X049529Y005161D01*
X049467Y005145D01*
X049406Y005125D01*
X049346Y005102D01*
X049287Y005075D01*
X049231Y005044D01*
X049176Y005011D01*
X049123Y004974D01*
X049073Y004933D01*
X049026Y004890D01*
X048981Y004844D01*
X048938Y004796D01*
X048899Y004745D01*
X048863Y004691D01*
X048831Y004636D01*
X048802Y004579D01*
X048776Y004520D01*
X051775Y005732D02*
X051775Y006519D01*
X051776Y006520D02*
X051802Y006579D01*
X051831Y006636D01*
X051863Y006691D01*
X051899Y006745D01*
X051938Y006796D01*
X051981Y006844D01*
X052026Y006890D01*
X052073Y006933D01*
X052123Y006974D01*
X052176Y007011D01*
X052231Y007044D01*
X052287Y007075D01*
X052346Y007102D01*
X052406Y007125D01*
X052467Y007145D01*
X052529Y007161D01*
X052593Y007173D01*
X052656Y007181D01*
X052720Y007185D01*
X052785Y007186D01*
X052849Y007182D01*
X052913Y007175D01*
X052976Y007164D01*
X053039Y007149D01*
X053100Y007130D01*
X053161Y007107D01*
X053219Y007081D01*
X053276Y007052D01*
X053332Y007019D01*
X053385Y006982D01*
X053435Y006943D01*
X053484Y006900D01*
X053529Y006855D01*
X053572Y006807D01*
X053612Y006757D01*
X053649Y006704D01*
X053682Y006649D01*
X053712Y006592D01*
X053739Y006533D01*
X053762Y006473D01*
X053781Y006412D01*
X053796Y006349D01*
X053808Y006286D01*
X053816Y006222D01*
X053820Y006158D01*
X053820Y006094D01*
X053816Y006030D01*
X053808Y005966D01*
X053796Y005903D01*
X053781Y005840D01*
X053762Y005779D01*
X053739Y005719D01*
X053712Y005660D01*
X053682Y005603D01*
X053649Y005548D01*
X053612Y005495D01*
X053572Y005445D01*
X053529Y005397D01*
X053484Y005352D01*
X053435Y005309D01*
X053385Y005270D01*
X053332Y005233D01*
X053276Y005200D01*
X053219Y005171D01*
X053161Y005145D01*
X053100Y005122D01*
X053039Y005103D01*
X052976Y005088D01*
X052913Y005077D01*
X052849Y005070D01*
X052785Y005066D01*
X052720Y005067D01*
X052656Y005071D01*
X052593Y005079D01*
X052529Y005091D01*
X052467Y005107D01*
X052406Y005127D01*
X052346Y005150D01*
X052287Y005177D01*
X052231Y005208D01*
X052176Y005241D01*
X052123Y005278D01*
X052073Y005319D01*
X052026Y005362D01*
X051981Y005408D01*
X051938Y005456D01*
X051899Y005507D01*
X051863Y005561D01*
X051831Y005616D01*
X051802Y005673D01*
X051776Y005732D01*
X054775Y004519D02*
X054775Y003732D01*
X054776Y003732D02*
X054802Y003673D01*
X054831Y003616D01*
X054863Y003561D01*
X054899Y003507D01*
X054938Y003456D01*
X054981Y003408D01*
X055026Y003362D01*
X055073Y003319D01*
X055123Y003278D01*
X055176Y003241D01*
X055231Y003208D01*
X055287Y003177D01*
X055346Y003150D01*
X055406Y003127D01*
X055467Y003107D01*
X055529Y003091D01*
X055593Y003079D01*
X055656Y003071D01*
X055720Y003067D01*
X055785Y003066D01*
X055849Y003070D01*
X055913Y003077D01*
X055976Y003088D01*
X056039Y003103D01*
X056100Y003122D01*
X056161Y003145D01*
X056219Y003171D01*
X056276Y003200D01*
X056332Y003233D01*
X056385Y003270D01*
X056435Y003309D01*
X056484Y003352D01*
X056529Y003397D01*
X056572Y003445D01*
X056612Y003495D01*
X056649Y003548D01*
X056682Y003603D01*
X056712Y003660D01*
X056739Y003719D01*
X056762Y003779D01*
X056781Y003840D01*
X056796Y003903D01*
X056808Y003966D01*
X056816Y004030D01*
X056820Y004094D01*
X056820Y004158D01*
X056816Y004222D01*
X056808Y004286D01*
X056796Y004349D01*
X056781Y004412D01*
X056762Y004473D01*
X056739Y004533D01*
X056712Y004592D01*
X056682Y004649D01*
X056649Y004704D01*
X056612Y004757D01*
X056572Y004807D01*
X056529Y004855D01*
X056484Y004900D01*
X056435Y004943D01*
X056385Y004982D01*
X056332Y005019D01*
X056276Y005052D01*
X056219Y005081D01*
X056161Y005107D01*
X056100Y005130D01*
X056039Y005149D01*
X055976Y005164D01*
X055913Y005175D01*
X055849Y005182D01*
X055785Y005186D01*
X055720Y005185D01*
X055656Y005181D01*
X055593Y005173D01*
X055529Y005161D01*
X055467Y005145D01*
X055406Y005125D01*
X055346Y005102D01*
X055287Y005075D01*
X055231Y005044D01*
X055176Y005011D01*
X055123Y004974D01*
X055073Y004933D01*
X055026Y004890D01*
X054981Y004844D01*
X054938Y004796D01*
X054899Y004745D01*
X054863Y004691D01*
X054831Y004636D01*
X054802Y004579D01*
X054776Y004520D01*
X057775Y005732D02*
X057775Y006519D01*
X057776Y006520D02*
X057802Y006579D01*
X057831Y006636D01*
X057863Y006691D01*
X057899Y006745D01*
X057938Y006796D01*
X057981Y006844D01*
X058026Y006890D01*
X058073Y006933D01*
X058123Y006974D01*
X058176Y007011D01*
X058231Y007044D01*
X058287Y007075D01*
X058346Y007102D01*
X058406Y007125D01*
X058467Y007145D01*
X058529Y007161D01*
X058593Y007173D01*
X058656Y007181D01*
X058720Y007185D01*
X058785Y007186D01*
X058849Y007182D01*
X058913Y007175D01*
X058976Y007164D01*
X059039Y007149D01*
X059100Y007130D01*
X059161Y007107D01*
X059219Y007081D01*
X059276Y007052D01*
X059332Y007019D01*
X059385Y006982D01*
X059435Y006943D01*
X059484Y006900D01*
X059529Y006855D01*
X059572Y006807D01*
X059612Y006757D01*
X059649Y006704D01*
X059682Y006649D01*
X059712Y006592D01*
X059739Y006533D01*
X059762Y006473D01*
X059781Y006412D01*
X059796Y006349D01*
X059808Y006286D01*
X059816Y006222D01*
X059820Y006158D01*
X059820Y006094D01*
X059816Y006030D01*
X059808Y005966D01*
X059796Y005903D01*
X059781Y005840D01*
X059762Y005779D01*
X059739Y005719D01*
X059712Y005660D01*
X059682Y005603D01*
X059649Y005548D01*
X059612Y005495D01*
X059572Y005445D01*
X059529Y005397D01*
X059484Y005352D01*
X059435Y005309D01*
X059385Y005270D01*
X059332Y005233D01*
X059276Y005200D01*
X059219Y005171D01*
X059161Y005145D01*
X059100Y005122D01*
X059039Y005103D01*
X058976Y005088D01*
X058913Y005077D01*
X058849Y005070D01*
X058785Y005066D01*
X058720Y005067D01*
X058656Y005071D01*
X058593Y005079D01*
X058529Y005091D01*
X058467Y005107D01*
X058406Y005127D01*
X058346Y005150D01*
X058287Y005177D01*
X058231Y005208D01*
X058176Y005241D01*
X058123Y005278D01*
X058073Y005319D01*
X058026Y005362D01*
X057981Y005408D01*
X057938Y005456D01*
X057899Y005507D01*
X057863Y005561D01*
X057831Y005616D01*
X057802Y005673D01*
X057776Y005732D01*
X060775Y004519D02*
X060775Y003732D01*
X060776Y003732D02*
X060802Y003673D01*
X060831Y003616D01*
X060863Y003561D01*
X060899Y003507D01*
X060938Y003456D01*
X060981Y003408D01*
X061026Y003362D01*
X061073Y003319D01*
X061123Y003278D01*
X061176Y003241D01*
X061231Y003208D01*
X061287Y003177D01*
X061346Y003150D01*
X061406Y003127D01*
X061467Y003107D01*
X061529Y003091D01*
X061593Y003079D01*
X061656Y003071D01*
X061720Y003067D01*
X061785Y003066D01*
X061849Y003070D01*
X061913Y003077D01*
X061976Y003088D01*
X062039Y003103D01*
X062100Y003122D01*
X062161Y003145D01*
X062219Y003171D01*
X062276Y003200D01*
X062332Y003233D01*
X062385Y003270D01*
X062435Y003309D01*
X062484Y003352D01*
X062529Y003397D01*
X062572Y003445D01*
X062612Y003495D01*
X062649Y003548D01*
X062682Y003603D01*
X062712Y003660D01*
X062739Y003719D01*
X062762Y003779D01*
X062781Y003840D01*
X062796Y003903D01*
X062808Y003966D01*
X062816Y004030D01*
X062820Y004094D01*
X062820Y004158D01*
X062816Y004222D01*
X062808Y004286D01*
X062796Y004349D01*
X062781Y004412D01*
X062762Y004473D01*
X062739Y004533D01*
X062712Y004592D01*
X062682Y004649D01*
X062649Y004704D01*
X062612Y004757D01*
X062572Y004807D01*
X062529Y004855D01*
X062484Y004900D01*
X062435Y004943D01*
X062385Y004982D01*
X062332Y005019D01*
X062276Y005052D01*
X062219Y005081D01*
X062161Y005107D01*
X062100Y005130D01*
X062039Y005149D01*
X061976Y005164D01*
X061913Y005175D01*
X061849Y005182D01*
X061785Y005186D01*
X061720Y005185D01*
X061656Y005181D01*
X061593Y005173D01*
X061529Y005161D01*
X061467Y005145D01*
X061406Y005125D01*
X061346Y005102D01*
X061287Y005075D01*
X061231Y005044D01*
X061176Y005011D01*
X061123Y004974D01*
X061073Y004933D01*
X061026Y004890D01*
X060981Y004844D01*
X060938Y004796D01*
X060899Y004745D01*
X060863Y004691D01*
X060831Y004636D01*
X060802Y004579D01*
X060776Y004520D01*
X063775Y005732D02*
X063775Y006519D01*
X063776Y006520D02*
X063802Y006579D01*
X063831Y006636D01*
X063863Y006691D01*
X063899Y006745D01*
X063938Y006796D01*
X063981Y006844D01*
X064026Y006890D01*
X064073Y006933D01*
X064123Y006974D01*
X064176Y007011D01*
X064231Y007044D01*
X064287Y007075D01*
X064346Y007102D01*
X064406Y007125D01*
X064467Y007145D01*
X064529Y007161D01*
X064593Y007173D01*
X064656Y007181D01*
X064720Y007185D01*
X064785Y007186D01*
X064849Y007182D01*
X064913Y007175D01*
X064976Y007164D01*
X065039Y007149D01*
X065100Y007130D01*
X065161Y007107D01*
X065219Y007081D01*
X065276Y007052D01*
X065332Y007019D01*
X065385Y006982D01*
X065435Y006943D01*
X065484Y006900D01*
X065529Y006855D01*
X065572Y006807D01*
X065612Y006757D01*
X065649Y006704D01*
X065682Y006649D01*
X065712Y006592D01*
X065739Y006533D01*
X065762Y006473D01*
X065781Y006412D01*
X065796Y006349D01*
X065808Y006286D01*
X065816Y006222D01*
X065820Y006158D01*
X065820Y006094D01*
X065816Y006030D01*
X065808Y005966D01*
X065796Y005903D01*
X065781Y005840D01*
X065762Y005779D01*
X065739Y005719D01*
X065712Y005660D01*
X065682Y005603D01*
X065649Y005548D01*
X065612Y005495D01*
X065572Y005445D01*
X065529Y005397D01*
X065484Y005352D01*
X065435Y005309D01*
X065385Y005270D01*
X065332Y005233D01*
X065276Y005200D01*
X065219Y005171D01*
X065161Y005145D01*
X065100Y005122D01*
X065039Y005103D01*
X064976Y005088D01*
X064913Y005077D01*
X064849Y005070D01*
X064785Y005066D01*
X064720Y005067D01*
X064656Y005071D01*
X064593Y005079D01*
X064529Y005091D01*
X064467Y005107D01*
X064406Y005127D01*
X064346Y005150D01*
X064287Y005177D01*
X064231Y005208D01*
X064176Y005241D01*
X064123Y005278D01*
X064073Y005319D01*
X064026Y005362D01*
X063981Y005408D01*
X063938Y005456D01*
X063899Y005507D01*
X063863Y005561D01*
X063831Y005616D01*
X063802Y005673D01*
X063776Y005732D01*
X066775Y004519D02*
X066775Y003732D01*
X066776Y003732D02*
X066802Y003673D01*
X066831Y003616D01*
X066863Y003561D01*
X066899Y003507D01*
X066938Y003456D01*
X066981Y003408D01*
X067026Y003362D01*
X067073Y003319D01*
X067123Y003278D01*
X067176Y003241D01*
X067231Y003208D01*
X067287Y003177D01*
X067346Y003150D01*
X067406Y003127D01*
X067467Y003107D01*
X067529Y003091D01*
X067593Y003079D01*
X067656Y003071D01*
X067720Y003067D01*
X067785Y003066D01*
X067849Y003070D01*
X067913Y003077D01*
X067976Y003088D01*
X068039Y003103D01*
X068100Y003122D01*
X068161Y003145D01*
X068219Y003171D01*
X068276Y003200D01*
X068332Y003233D01*
X068385Y003270D01*
X068435Y003309D01*
X068484Y003352D01*
X068529Y003397D01*
X068572Y003445D01*
X068612Y003495D01*
X068649Y003548D01*
X068682Y003603D01*
X068712Y003660D01*
X068739Y003719D01*
X068762Y003779D01*
X068781Y003840D01*
X068796Y003903D01*
X068808Y003966D01*
X068816Y004030D01*
X068820Y004094D01*
X068820Y004158D01*
X068816Y004222D01*
X068808Y004286D01*
X068796Y004349D01*
X068781Y004412D01*
X068762Y004473D01*
X068739Y004533D01*
X068712Y004592D01*
X068682Y004649D01*
X068649Y004704D01*
X068612Y004757D01*
X068572Y004807D01*
X068529Y004855D01*
X068484Y004900D01*
X068435Y004943D01*
X068385Y004982D01*
X068332Y005019D01*
X068276Y005052D01*
X068219Y005081D01*
X068161Y005107D01*
X068100Y005130D01*
X068039Y005149D01*
X067976Y005164D01*
X067913Y005175D01*
X067849Y005182D01*
X067785Y005186D01*
X067720Y005185D01*
X067656Y005181D01*
X067593Y005173D01*
X067529Y005161D01*
X067467Y005145D01*
X067406Y005125D01*
X067346Y005102D01*
X067287Y005075D01*
X067231Y005044D01*
X067176Y005011D01*
X067123Y004974D01*
X067073Y004933D01*
X067026Y004890D01*
X066981Y004844D01*
X066938Y004796D01*
X066899Y004745D01*
X066863Y004691D01*
X066831Y004636D01*
X066802Y004579D01*
X066776Y004520D01*
X069775Y005732D02*
X069775Y006519D01*
X069776Y006520D02*
X069802Y006579D01*
X069831Y006636D01*
X069863Y006691D01*
X069899Y006745D01*
X069938Y006796D01*
X069981Y006844D01*
X070026Y006890D01*
X070073Y006933D01*
X070123Y006974D01*
X070176Y007011D01*
X070231Y007044D01*
X070287Y007075D01*
X070346Y007102D01*
X070406Y007125D01*
X070467Y007145D01*
X070529Y007161D01*
X070593Y007173D01*
X070656Y007181D01*
X070720Y007185D01*
X070785Y007186D01*
X070849Y007182D01*
X070913Y007175D01*
X070976Y007164D01*
X071039Y007149D01*
X071100Y007130D01*
X071161Y007107D01*
X071219Y007081D01*
X071276Y007052D01*
X071332Y007019D01*
X071385Y006982D01*
X071435Y006943D01*
X071484Y006900D01*
X071529Y006855D01*
X071572Y006807D01*
X071612Y006757D01*
X071649Y006704D01*
X071682Y006649D01*
X071712Y006592D01*
X071739Y006533D01*
X071762Y006473D01*
X071781Y006412D01*
X071796Y006349D01*
X071808Y006286D01*
X071816Y006222D01*
X071820Y006158D01*
X071820Y006094D01*
X071816Y006030D01*
X071808Y005966D01*
X071796Y005903D01*
X071781Y005840D01*
X071762Y005779D01*
X071739Y005719D01*
X071712Y005660D01*
X071682Y005603D01*
X071649Y005548D01*
X071612Y005495D01*
X071572Y005445D01*
X071529Y005397D01*
X071484Y005352D01*
X071435Y005309D01*
X071385Y005270D01*
X071332Y005233D01*
X071276Y005200D01*
X071219Y005171D01*
X071161Y005145D01*
X071100Y005122D01*
X071039Y005103D01*
X070976Y005088D01*
X070913Y005077D01*
X070849Y005070D01*
X070785Y005066D01*
X070720Y005067D01*
X070656Y005071D01*
X070593Y005079D01*
X070529Y005091D01*
X070467Y005107D01*
X070406Y005127D01*
X070346Y005150D01*
X070287Y005177D01*
X070231Y005208D01*
X070176Y005241D01*
X070123Y005278D01*
X070073Y005319D01*
X070026Y005362D01*
X069981Y005408D01*
X069938Y005456D01*
X069899Y005507D01*
X069863Y005561D01*
X069831Y005616D01*
X069802Y005673D01*
X069776Y005732D01*
X072775Y004519D02*
X072775Y003732D01*
X072776Y003732D02*
X072802Y003673D01*
X072831Y003616D01*
X072863Y003561D01*
X072899Y003507D01*
X072938Y003456D01*
X072981Y003408D01*
X073026Y003362D01*
X073073Y003319D01*
X073123Y003278D01*
X073176Y003241D01*
X073231Y003208D01*
X073287Y003177D01*
X073346Y003150D01*
X073406Y003127D01*
X073467Y003107D01*
X073529Y003091D01*
X073593Y003079D01*
X073656Y003071D01*
X073720Y003067D01*
X073785Y003066D01*
X073849Y003070D01*
X073913Y003077D01*
X073976Y003088D01*
X074039Y003103D01*
X074100Y003122D01*
X074161Y003145D01*
X074219Y003171D01*
X074276Y003200D01*
X074332Y003233D01*
X074385Y003270D01*
X074435Y003309D01*
X074484Y003352D01*
X074529Y003397D01*
X074572Y003445D01*
X074612Y003495D01*
X074649Y003548D01*
X074682Y003603D01*
X074712Y003660D01*
X074739Y003719D01*
X074762Y003779D01*
X074781Y003840D01*
X074796Y003903D01*
X074808Y003966D01*
X074816Y004030D01*
X074820Y004094D01*
X074820Y004158D01*
X074816Y004222D01*
X074808Y004286D01*
X074796Y004349D01*
X074781Y004412D01*
X074762Y004473D01*
X074739Y004533D01*
X074712Y004592D01*
X074682Y004649D01*
X074649Y004704D01*
X074612Y004757D01*
X074572Y004807D01*
X074529Y004855D01*
X074484Y004900D01*
X074435Y004943D01*
X074385Y004982D01*
X074332Y005019D01*
X074276Y005052D01*
X074219Y005081D01*
X074161Y005107D01*
X074100Y005130D01*
X074039Y005149D01*
X073976Y005164D01*
X073913Y005175D01*
X073849Y005182D01*
X073785Y005186D01*
X073720Y005185D01*
X073656Y005181D01*
X073593Y005173D01*
X073529Y005161D01*
X073467Y005145D01*
X073406Y005125D01*
X073346Y005102D01*
X073287Y005075D01*
X073231Y005044D01*
X073176Y005011D01*
X073123Y004974D01*
X073073Y004933D01*
X073026Y004890D01*
X072981Y004844D01*
X072938Y004796D01*
X072899Y004745D01*
X072863Y004691D01*
X072831Y004636D01*
X072802Y004579D01*
X072776Y004520D01*
X075775Y005732D02*
X075775Y006519D01*
X075776Y006520D02*
X075802Y006579D01*
X075831Y006636D01*
X075863Y006691D01*
X075899Y006745D01*
X075938Y006796D01*
X075981Y006844D01*
X076026Y006890D01*
X076073Y006933D01*
X076123Y006974D01*
X076176Y007011D01*
X076231Y007044D01*
X076287Y007075D01*
X076346Y007102D01*
X076406Y007125D01*
X076467Y007145D01*
X076529Y007161D01*
X076593Y007173D01*
X076656Y007181D01*
X076720Y007185D01*
X076785Y007186D01*
X076849Y007182D01*
X076913Y007175D01*
X076976Y007164D01*
X077039Y007149D01*
X077100Y007130D01*
X077161Y007107D01*
X077219Y007081D01*
X077276Y007052D01*
X077332Y007019D01*
X077385Y006982D01*
X077435Y006943D01*
X077484Y006900D01*
X077529Y006855D01*
X077572Y006807D01*
X077612Y006757D01*
X077649Y006704D01*
X077682Y006649D01*
X077712Y006592D01*
X077739Y006533D01*
X077762Y006473D01*
X077781Y006412D01*
X077796Y006349D01*
X077808Y006286D01*
X077816Y006222D01*
X077820Y006158D01*
X077820Y006094D01*
X077816Y006030D01*
X077808Y005966D01*
X077796Y005903D01*
X077781Y005840D01*
X077762Y005779D01*
X077739Y005719D01*
X077712Y005660D01*
X077682Y005603D01*
X077649Y005548D01*
X077612Y005495D01*
X077572Y005445D01*
X077529Y005397D01*
X077484Y005352D01*
X077435Y005309D01*
X077385Y005270D01*
X077332Y005233D01*
X077276Y005200D01*
X077219Y005171D01*
X077161Y005145D01*
X077100Y005122D01*
X077039Y005103D01*
X076976Y005088D01*
X076913Y005077D01*
X076849Y005070D01*
X076785Y005066D01*
X076720Y005067D01*
X076656Y005071D01*
X076593Y005079D01*
X076529Y005091D01*
X076467Y005107D01*
X076406Y005127D01*
X076346Y005150D01*
X076287Y005177D01*
X076231Y005208D01*
X076176Y005241D01*
X076123Y005278D01*
X076073Y005319D01*
X076026Y005362D01*
X075981Y005408D01*
X075938Y005456D01*
X075899Y005507D01*
X075863Y005561D01*
X075831Y005616D01*
X075802Y005673D01*
X075776Y005732D01*
X078775Y004519D02*
X078775Y003732D01*
X078776Y003732D02*
X078802Y003673D01*
X078831Y003616D01*
X078863Y003561D01*
X078899Y003507D01*
X078938Y003456D01*
X078981Y003408D01*
X079026Y003362D01*
X079073Y003319D01*
X079123Y003278D01*
X079176Y003241D01*
X079231Y003208D01*
X079287Y003177D01*
X079346Y003150D01*
X079406Y003127D01*
X079467Y003107D01*
X079529Y003091D01*
X079593Y003079D01*
X079656Y003071D01*
X079720Y003067D01*
X079785Y003066D01*
X079849Y003070D01*
X079913Y003077D01*
X079976Y003088D01*
X080039Y003103D01*
X080100Y003122D01*
X080161Y003145D01*
X080219Y003171D01*
X080276Y003200D01*
X080332Y003233D01*
X080385Y003270D01*
X080435Y003309D01*
X080484Y003352D01*
X080529Y003397D01*
X080572Y003445D01*
X080612Y003495D01*
X080649Y003548D01*
X080682Y003603D01*
X080712Y003660D01*
X080739Y003719D01*
X080762Y003779D01*
X080781Y003840D01*
X080796Y003903D01*
X080808Y003966D01*
X080816Y004030D01*
X080820Y004094D01*
X080820Y004158D01*
X080816Y004222D01*
X080808Y004286D01*
X080796Y004349D01*
X080781Y004412D01*
X080762Y004473D01*
X080739Y004533D01*
X080712Y004592D01*
X080682Y004649D01*
X080649Y004704D01*
X080612Y004757D01*
X080572Y004807D01*
X080529Y004855D01*
X080484Y004900D01*
X080435Y004943D01*
X080385Y004982D01*
X080332Y005019D01*
X080276Y005052D01*
X080219Y005081D01*
X080161Y005107D01*
X080100Y005130D01*
X080039Y005149D01*
X079976Y005164D01*
X079913Y005175D01*
X079849Y005182D01*
X079785Y005186D01*
X079720Y005185D01*
X079656Y005181D01*
X079593Y005173D01*
X079529Y005161D01*
X079467Y005145D01*
X079406Y005125D01*
X079346Y005102D01*
X079287Y005075D01*
X079231Y005044D01*
X079176Y005011D01*
X079123Y004974D01*
X079073Y004933D01*
X079026Y004890D01*
X078981Y004844D01*
X078938Y004796D01*
X078899Y004745D01*
X078863Y004691D01*
X078831Y004636D01*
X078802Y004579D01*
X078776Y004520D01*
D12*
X006760Y000876D02*
X006760Y000626D01*
X007010Y000626D01*
X008010Y000626D02*
X008260Y000626D01*
X008260Y000876D01*
X008260Y001876D02*
X008260Y002126D01*
X008010Y002126D01*
X007010Y002126D02*
X006760Y002126D01*
X006760Y001876D01*
X006060Y003483D02*
X006060Y004768D01*
X005260Y004876D02*
X005260Y004626D01*
X005260Y004876D02*
X005010Y004876D01*
X004010Y004876D02*
X003760Y004876D01*
X003760Y004626D01*
X006060Y003484D02*
X006103Y003440D01*
X006148Y003400D01*
X006196Y003362D01*
X006246Y003327D01*
X006298Y003296D01*
X006352Y003268D01*
X006408Y003244D01*
X006465Y003223D01*
X006523Y003206D01*
X006583Y003193D01*
X006643Y003183D01*
X006703Y003178D01*
X006764Y003176D01*
X006825Y003178D01*
X006886Y003184D01*
X006946Y003194D01*
X007005Y003208D01*
X007063Y003226D01*
X007120Y003247D01*
X007176Y003272D01*
X007229Y003300D01*
X007281Y003332D01*
X007331Y003367D01*
X007379Y003405D01*
X007423Y003446D01*
X007466Y003490D01*
X007505Y003536D01*
X007541Y003585D01*
X007574Y003636D01*
X007604Y003690D01*
X007630Y003744D01*
X007630Y004507D02*
X007604Y004561D01*
X007574Y004615D01*
X007541Y004666D01*
X007505Y004715D01*
X007466Y004761D01*
X007423Y004805D01*
X007379Y004846D01*
X007331Y004884D01*
X007281Y004919D01*
X007229Y004951D01*
X007176Y004979D01*
X007120Y005004D01*
X007063Y005025D01*
X007005Y005043D01*
X006946Y005057D01*
X006886Y005067D01*
X006825Y005073D01*
X006764Y005075D01*
X006703Y005073D01*
X006643Y005068D01*
X006583Y005058D01*
X006523Y005045D01*
X006465Y005028D01*
X006408Y005007D01*
X006352Y004983D01*
X006298Y004955D01*
X006246Y004924D01*
X006196Y004889D01*
X006148Y004851D01*
X006103Y004811D01*
X006060Y004767D01*
X005260Y003626D02*
X005260Y003376D01*
X005010Y003376D01*
X004010Y003376D02*
X003760Y003376D01*
X003760Y003626D01*
X003760Y006376D02*
X003760Y006626D01*
X003760Y006376D02*
X004010Y006376D01*
X005010Y006376D02*
X005260Y006376D01*
X005260Y006626D01*
X006060Y006483D02*
X006060Y007768D01*
X005260Y007876D02*
X005260Y007626D01*
X005260Y007876D02*
X005010Y007876D01*
X004010Y007876D02*
X003760Y007876D01*
X003760Y007626D01*
X006060Y006484D02*
X006103Y006440D01*
X006148Y006400D01*
X006196Y006362D01*
X006246Y006327D01*
X006298Y006296D01*
X006352Y006268D01*
X006408Y006244D01*
X006465Y006223D01*
X006523Y006206D01*
X006583Y006193D01*
X006643Y006183D01*
X006703Y006178D01*
X006764Y006176D01*
X006825Y006178D01*
X006886Y006184D01*
X006946Y006194D01*
X007005Y006208D01*
X007063Y006226D01*
X007120Y006247D01*
X007176Y006272D01*
X007229Y006300D01*
X007281Y006332D01*
X007331Y006367D01*
X007379Y006405D01*
X007423Y006446D01*
X007466Y006490D01*
X007505Y006536D01*
X007541Y006585D01*
X007574Y006636D01*
X007604Y006690D01*
X007630Y006744D01*
X007630Y007507D02*
X007604Y007561D01*
X007574Y007615D01*
X007541Y007666D01*
X007505Y007715D01*
X007466Y007761D01*
X007423Y007805D01*
X007379Y007846D01*
X007331Y007884D01*
X007281Y007919D01*
X007229Y007951D01*
X007176Y007979D01*
X007120Y008004D01*
X007063Y008025D01*
X007005Y008043D01*
X006946Y008057D01*
X006886Y008067D01*
X006825Y008073D01*
X006764Y008075D01*
X006703Y008073D01*
X006643Y008068D01*
X006583Y008058D01*
X006523Y008045D01*
X006465Y008028D01*
X006408Y008007D01*
X006352Y007983D01*
X006298Y007955D01*
X006246Y007924D01*
X006196Y007889D01*
X006148Y007851D01*
X006103Y007811D01*
X006060Y007767D01*
X005260Y009376D02*
X005010Y009376D01*
X005260Y009376D02*
X005260Y009626D01*
X006060Y009483D02*
X006060Y010768D01*
X005260Y010876D02*
X005260Y010626D01*
X005260Y010876D02*
X005010Y010876D01*
X004010Y010876D02*
X003760Y010876D01*
X003760Y010626D01*
X006060Y009484D02*
X006103Y009440D01*
X006148Y009400D01*
X006196Y009362D01*
X006246Y009327D01*
X006298Y009296D01*
X006352Y009268D01*
X006408Y009244D01*
X006465Y009223D01*
X006523Y009206D01*
X006583Y009193D01*
X006643Y009183D01*
X006703Y009178D01*
X006764Y009176D01*
X006825Y009178D01*
X006886Y009184D01*
X006946Y009194D01*
X007005Y009208D01*
X007063Y009226D01*
X007120Y009247D01*
X007176Y009272D01*
X007229Y009300D01*
X007281Y009332D01*
X007331Y009367D01*
X007379Y009405D01*
X007423Y009446D01*
X007466Y009490D01*
X007505Y009536D01*
X007541Y009585D01*
X007574Y009636D01*
X007604Y009690D01*
X007630Y009744D01*
X007630Y010507D02*
X007604Y010561D01*
X007574Y010615D01*
X007541Y010666D01*
X007505Y010715D01*
X007466Y010761D01*
X007423Y010805D01*
X007379Y010846D01*
X007331Y010884D01*
X007281Y010919D01*
X007229Y010951D01*
X007176Y010979D01*
X007120Y011004D01*
X007063Y011025D01*
X007005Y011043D01*
X006946Y011057D01*
X006886Y011067D01*
X006825Y011073D01*
X006764Y011075D01*
X006703Y011073D01*
X006643Y011068D01*
X006583Y011058D01*
X006523Y011045D01*
X006465Y011028D01*
X006408Y011007D01*
X006352Y010983D01*
X006298Y010955D01*
X006246Y010924D01*
X006196Y010889D01*
X006148Y010851D01*
X006103Y010811D01*
X006060Y010767D01*
X003760Y009626D02*
X003760Y009376D01*
X004010Y009376D01*
X006760Y012876D02*
X006760Y013126D01*
X006760Y012876D02*
X007010Y012876D01*
X008010Y012876D02*
X008260Y012876D01*
X008260Y013126D01*
X008260Y014126D02*
X008260Y014376D01*
X008010Y014376D01*
X007010Y014376D02*
X006760Y014376D01*
X006760Y014126D01*
M02*
