G75*
G70*
%OFA0B0*%
%FSLAX24Y24*%
%IPPOS*%
%LPD*%
%AMOC8*
5,1,8,0,0,1.08239X$1,22.5*
%
%ADD10C,0.0580*%
%ADD11OC8,0.0600*%
%ADD12OC8,0.1580*%
%ADD13C,0.1380*%
%ADD14R,0.0476X0.0476*%
D10*
X013010Y003876D02*
X013010Y004376D01*
X013510Y004376D02*
X013510Y003876D01*
X014010Y003876D02*
X014010Y004376D01*
X014510Y004376D02*
X014510Y003876D01*
X019010Y003876D02*
X019010Y004376D01*
X019510Y004376D02*
X019510Y003876D01*
X020010Y003876D02*
X020010Y004376D01*
X020510Y004376D02*
X020510Y003876D01*
X025010Y003876D02*
X025010Y004376D01*
X025510Y004376D02*
X025510Y003876D01*
X026010Y003876D02*
X026010Y004376D01*
X026510Y004376D02*
X026510Y003876D01*
X031010Y003876D02*
X031010Y004376D01*
X031510Y004376D02*
X031510Y003876D01*
X032010Y003876D02*
X032010Y004376D01*
X032510Y004376D02*
X032510Y003876D01*
X037010Y003876D02*
X037010Y004376D01*
X037510Y004376D02*
X037510Y003876D01*
X038010Y003876D02*
X038010Y004376D01*
X038510Y004376D02*
X038510Y003876D01*
X043010Y003876D02*
X043010Y004376D01*
X043510Y004376D02*
X043510Y003876D01*
X044010Y003876D02*
X044010Y004376D01*
X044510Y004376D02*
X044510Y003876D01*
X049010Y003876D02*
X049010Y004376D01*
X049510Y004376D02*
X049510Y003876D01*
X050010Y003876D02*
X050010Y004376D01*
X050510Y004376D02*
X050510Y003876D01*
X055010Y003876D02*
X055010Y004376D01*
X055510Y004376D02*
X055510Y003876D01*
X056010Y003876D02*
X056010Y004376D01*
X056510Y004376D02*
X056510Y003876D01*
X061010Y003876D02*
X061010Y004376D01*
X061510Y004376D02*
X061510Y003876D01*
X062010Y003876D02*
X062010Y004376D01*
X062510Y004376D02*
X062510Y003876D01*
X067010Y003876D02*
X067010Y004376D01*
X067510Y004376D02*
X067510Y003876D01*
X068010Y003876D02*
X068010Y004376D01*
X068510Y004376D02*
X068510Y003876D01*
X073010Y003876D02*
X073010Y004376D01*
X073510Y004376D02*
X073510Y003876D01*
X074010Y003876D02*
X074010Y004376D01*
X074510Y004376D02*
X074510Y003876D01*
X079010Y003876D02*
X079010Y004376D01*
X079510Y004376D02*
X079510Y003876D01*
X080010Y003876D02*
X080010Y004376D01*
X080510Y004376D02*
X080510Y003876D01*
X077510Y005876D02*
X077510Y006376D01*
X077010Y006376D02*
X077010Y005876D01*
X076510Y005876D02*
X076510Y006376D01*
X076010Y006376D02*
X076010Y005876D01*
X071510Y005876D02*
X071510Y006376D01*
X071010Y006376D02*
X071010Y005876D01*
X070510Y005876D02*
X070510Y006376D01*
X070010Y006376D02*
X070010Y005876D01*
X065510Y005876D02*
X065510Y006376D01*
X065010Y006376D02*
X065010Y005876D01*
X064510Y005876D02*
X064510Y006376D01*
X064010Y006376D02*
X064010Y005876D01*
X059510Y005876D02*
X059510Y006376D01*
X059010Y006376D02*
X059010Y005876D01*
X058510Y005876D02*
X058510Y006376D01*
X058010Y006376D02*
X058010Y005876D01*
X053510Y005876D02*
X053510Y006376D01*
X053010Y006376D02*
X053010Y005876D01*
X052510Y005876D02*
X052510Y006376D01*
X052010Y006376D02*
X052010Y005876D01*
X047510Y005876D02*
X047510Y006376D01*
X047010Y006376D02*
X047010Y005876D01*
X046510Y005876D02*
X046510Y006376D01*
X046010Y006376D02*
X046010Y005876D01*
X041510Y005876D02*
X041510Y006376D01*
X041010Y006376D02*
X041010Y005876D01*
X040510Y005876D02*
X040510Y006376D01*
X040010Y006376D02*
X040010Y005876D01*
X035510Y005876D02*
X035510Y006376D01*
X035010Y006376D02*
X035010Y005876D01*
X034510Y005876D02*
X034510Y006376D01*
X034010Y006376D02*
X034010Y005876D01*
X029510Y005876D02*
X029510Y006376D01*
X029010Y006376D02*
X029010Y005876D01*
X028510Y005876D02*
X028510Y006376D01*
X028010Y006376D02*
X028010Y005876D01*
X023510Y005876D02*
X023510Y006376D01*
X023010Y006376D02*
X023010Y005876D01*
X022510Y005876D02*
X022510Y006376D01*
X022010Y006376D02*
X022010Y005876D01*
X017510Y005876D02*
X017510Y006376D01*
X017010Y006376D02*
X017010Y005876D01*
X016510Y005876D02*
X016510Y006376D01*
X016010Y006376D02*
X016010Y005876D01*
X011510Y005876D02*
X011510Y006376D01*
X011010Y006376D02*
X011010Y005876D01*
X010510Y005876D02*
X010510Y006376D01*
X010010Y006376D02*
X010010Y005876D01*
D11*
X006760Y006626D03*
X007510Y007126D03*
X006760Y007626D03*
X006760Y009626D03*
X007510Y010126D03*
X006760Y010626D03*
X006760Y004626D03*
X007510Y004126D03*
X006760Y003626D03*
D12*
X004510Y004126D03*
X007510Y001376D03*
X004510Y007126D03*
X004510Y010126D03*
X007510Y013626D03*
D13*
X005010Y001626D03*
X005010Y013626D03*
X082010Y013626D03*
X082010Y001626D03*
D14*
X079510Y002126D03*
X077010Y002126D03*
X074010Y002126D03*
X071010Y002126D03*
X068010Y002126D03*
X065010Y002126D03*
X062010Y002126D03*
X059010Y002126D03*
X056010Y002126D03*
X053010Y002126D03*
X050010Y002126D03*
X047010Y002126D03*
X044010Y002126D03*
X041010Y002126D03*
X038010Y002126D03*
X035010Y002126D03*
X032010Y002126D03*
X029010Y002126D03*
X026010Y002126D03*
X023010Y002126D03*
X020010Y002126D03*
X017010Y002126D03*
X014010Y002126D03*
X011010Y002126D03*
X008510Y003126D03*
X005760Y003126D03*
X005760Y006126D03*
X009510Y007626D03*
X010010Y008126D03*
X007510Y008876D03*
X010510Y009126D03*
X013510Y009126D03*
X016510Y009126D03*
X019510Y009126D03*
X022510Y009126D03*
X025510Y009126D03*
X028510Y009126D03*
X031510Y009126D03*
X034510Y009126D03*
X037510Y009126D03*
X040510Y009126D03*
X043510Y009126D03*
X046510Y009126D03*
X049510Y009126D03*
X052510Y009126D03*
X055510Y009126D03*
X058510Y009126D03*
X061510Y009126D03*
X064510Y009126D03*
X067510Y009126D03*
X070510Y009126D03*
X073510Y009126D03*
X076510Y009126D03*
X079510Y009126D03*
X079010Y008126D03*
X076010Y008126D03*
X073010Y008126D03*
X070010Y008126D03*
X067010Y008126D03*
X064010Y008126D03*
X061010Y008126D03*
X058010Y008126D03*
X055010Y008126D03*
X052010Y008126D03*
X049010Y008126D03*
X046010Y008126D03*
X043010Y008126D03*
X040010Y008126D03*
X037010Y008126D03*
X034010Y008126D03*
X031010Y008126D03*
X028010Y008126D03*
X025010Y008126D03*
X022010Y008126D03*
X019010Y008126D03*
X016010Y008126D03*
X013010Y008126D03*
X009510Y010126D03*
X010510Y012626D03*
X013510Y012626D03*
X016510Y012626D03*
X019510Y012626D03*
X022510Y012626D03*
X025510Y012626D03*
X028510Y012626D03*
X031510Y012626D03*
X034510Y012626D03*
X037510Y012626D03*
X040510Y012626D03*
X043510Y012626D03*
X046510Y012626D03*
X049510Y012626D03*
X052510Y012626D03*
X055510Y012626D03*
X058510Y012626D03*
X061510Y012626D03*
X064510Y012626D03*
X067510Y012626D03*
X070510Y012626D03*
X073510Y012626D03*
X076510Y012626D03*
X079510Y012626D03*
M02*
